<svg xmlns="http://www.w3.org/2000/svg" viewBox="0 0 512.033 512.033"><path d="M256.017 160.002c-4.422 0-8-3.582-8-8 0-50.566-7.742-117.113-29.562-138.254a7.99 7.99 0 01-.18-11.312c3.063-3.184 8.148-3.25 11.305-.18 31.953 30.953 34.437 122.441 34.437 149.746 0 4.418-3.578 8-8 8z" fill="#7e5c62"/><path d="M368.407 128.092c-28.422-4.332-50.734 2.18-70.406 7.918-14.07 4.109-27.359 7.992-41.984 7.992s-27.914-3.883-41.984-7.992c-19.68-5.742-42-12.238-70.406-7.918C96.142 135.334 39.54 162.92 39.54 253.213c0 85.32 28.312 202.008 108.109 250.078 21.016 12.656 45.125 8.938 70.656 5.023 12.375-1.906 25.172-3.875 37.711-3.875s25.336 1.969 37.711 3.875c12.25 1.883 24.18 3.719 35.594 3.719 12.367 0 24.141-2.156 35.063-8.742 79.797-48.07 108.109-164.758 108.109-250.078 0-90.293-56.601-117.879-104.086-125.121z" fill="#ff4f19"/><path d="M256.02 144.002h-.003c-14.625 0-27.914-3.883-41.984-7.992-19.68-5.742-42-12.238-70.406-7.918C96.142 135.334 39.54 162.92 39.54 253.213c0 85.32 28.312 202.008 108.109 250.078 21.016 12.656 45.125 8.938 70.656 5.023 12.375-1.906 25.172-3.875 37.711-3.875h.003V144.002h.001z" fill="#e3001e"/><path d="M367.73 21.908a81.723 81.723 0 00-.021-20.999A81.722 81.722 0 00346.71.888c-47.93 6.139-91.762 49.971-97.901 97.901a81.713 81.713 0 00.022 20.998 81.76 81.76 0 0020.998.021c47.93-6.139 91.762-49.971 97.901-97.9z" fill="#60dc4d"/><circle cx="383.798" cy="216.002" r="40" fill="#ff8c62"/><path d="M367.065.866c-6.434-.785-13.205-.893-20.354.022-47.93 6.139-91.762 49.97-97.901 97.901-.916 7.149-.807 13.919-.022 20.354L367.065.866z" fill="#00c37a"/></svg>