<svg xmlns="http://www.w3.org/2000/svg" viewBox="0 0 462.064 462.064" width="512" height="512"><path d="M447.469 54.395c7.14 43.35 5.9 87.81-3.73 130.77l-166.84-166.84a343.243 343.243 0 01130.77-3.73c20.39 3.36 36.44 19.41 39.8 39.8z" fill="#ff7124"/><path d="M276.899 18.325l166.84 166.84c-13.67 61.1-44.29 119.18-91.84 166.73-47.57 47.57-105.66 78.19-166.78 91.85l-166.8-166.8c13.66-61.12 44.28-119.21 91.85-166.78 47.55-47.55 105.63-78.17 166.73-91.84z" fill="#f2d59f"/><path d="M18.319 276.945l166.8 166.8c-42.95 9.62-87.39 10.86-130.73 3.74-20.4-3.35-36.46-19.41-39.81-39.81-7.12-43.34-5.88-87.78 3.74-130.73z" fill="#ff7124"/><g fill="#5e2a41"><path d="M110.229 462.064a354.156 354.156 0 01-57.461-4.711 58.233 58.233 0 01-48.057-48.057c-7.379-44.921-6.084-90.186 3.85-134.536 14.523-64.98 47.213-124.342 94.537-171.666 47.305-47.305 106.65-79.992 171.618-94.527 44.371-9.947 89.652-11.238 134.578-3.838 24.67 4.065 43.977 23.372 48.042 48.041 7.4 44.927 6.108 90.208-3.839 134.584-14.534 64.964-47.222 124.309-94.526 171.614-47.324 47.324-106.686 80.014-171.67 94.538l.004-.001c-25.47 5.703-51.241 8.559-77.076 8.559zm241.55-442.062c-24.365 0-48.666 2.695-72.692 8.081-61.264 13.706-117.228 44.535-161.846 89.153-44.636 44.636-75.468 100.616-89.162 161.89-9.372 41.843-10.594 84.546-3.632 126.928a38.247 38.247 0 0031.563 31.564c42.381 6.961 85.084 5.74 126.924-3.631l.004-.001c61.274-13.694 117.254-44.526 161.89-89.162 44.618-44.618 75.447-100.582 89.152-161.842 9.384-41.864 10.602-84.579 3.622-126.962a38.277 38.277 0 00-31.559-31.558 333.672 333.672 0 00-54.264-4.46z"/><path d="M158.309 313.755a9.97 9.97 0 01-7.071-2.929c-3.905-3.905-3.905-10.237 0-14.143l145.42-145.42c3.905-3.905 10.237-3.905 14.143 0 3.905 3.905 3.905 10.237 0 14.143l-145.42 145.42a9.972 9.972 0 01-7.072 2.929z"/><path d="M301.929 211.955a9.966 9.966 0 01-7.071-2.929l-41.819-41.819c-3.905-3.905-3.906-10.237-.001-14.142 3.905-3.905 10.237-3.906 14.142-.001l41.82 41.82c3.905 3.905 3.905 10.237 0 14.142a9.972 9.972 0 01-7.071 2.929zm-33.33 33.33a9.966 9.966 0 01-7.071-2.929l-41.819-41.819c-3.905-3.905-3.906-10.237 0-14.142 3.905-3.905 10.237-3.906 14.142-.001l41.82 41.82c3.905 3.905 3.905 10.237 0 14.142a9.976 9.976 0 01-7.072 2.929zm-33.34 33.33a9.966 9.966 0 01-7.071-2.929l-41.81-41.81c-3.905-3.905-3.905-10.237 0-14.143 3.905-3.905 10.237-3.905 14.143 0l41.81 41.81c3.905 3.905 3.905 10.237 0 14.143a9.972 9.972 0 01-7.072 2.929zm-33.33 33.34a9.966 9.966 0 01-7.071-2.929l-41.819-41.819c-3.905-3.905-3.906-10.237-.001-14.142 3.905-3.905 10.237-3.906 14.142-.001l41.82 41.82c3.905 3.905 3.905 10.237-.001 14.142a9.968 9.968 0 01-7.07 2.929zm241.81-116.79a9.966 9.966 0 01-7.071-2.929l-166.84-166.84c-3.905-3.905-3.905-10.237 0-14.143 3.905-3.905 10.237-3.905 14.143 0l166.84 166.84c3.905 3.905 3.905 10.237 0 14.143a9.972 9.972 0 01-7.072 2.929zM185.124 453.76a9.949 9.949 0 01-7.057-2.924l-166.82-166.82c-3.905-3.905-3.915-10.247-.01-14.152 3.906-3.905 10.227-3.915 14.132-.01l166.82 166.82c3.905 3.905 3.915 10.247.01 14.152a9.974 9.974 0 01-7.075 2.934zm-50.205-308.845a9.969 9.969 0 01-7.07-2.928c-3.906-3.905-3.907-10.236-.002-14.142 34.408-34.418 74.888-59.827 120.316-75.521 5.22-1.803 10.915.966 12.717 6.186 1.804 5.22-.966 10.914-6.186 12.717-42.539 14.696-80.458 38.503-112.703 70.758a9.968 9.968 0 01-7.072 2.93z"/></g></svg>