<svg xmlns="http://www.w3.org/2000/svg" viewBox="0 0 512.001 512.001"><path d="M470.005 377.72c37.673-3.784 57.204 43.484 27.666 67.154a305.928 305.928 0 01-20.651 15.18l-48.105-29.811 41.09-52.523zM67.126 14.329c23.67-29.537 70.938-10.006 67.154 27.652a306.518 306.518 0 00-1.559 30.983l-49.635 3.888-37.12-32.603a307.376 307.376 0 0121.16-29.92z" fill="#b27214"/><path d="M470.005 377.72l7.016 82.333c-48.785 32.811-107.519 51.945-170.719 51.945C136.661 511.998.001 375.338.001 205.697c0-59.259 16.824-114.578 45.964-161.449l86.755 28.715c0 169.046 137.255 306.316 306.316 306.301 10.46.001 20.793-.523 30.969-1.544z" fill="#f7b239"/><path d="M65.904 205.699c0-51.706 12.811-100.41 35.434-143.122L45.965 44.25C16.825 91.12.001 146.44.001 205.699.001 375.34 136.661 512 306.302 512c11.116 0 22.091-.604 32.902-1.759-154.016-16.371-273.3-146.055-273.3-304.542z" fill="#e09b2d"/><path d="M367.206 458.183c-83.933 0-162.694-32.538-221.773-91.618-59.079-59.08-91.615-137.845-91.615-221.784 0-12.39.731-24.886 2.174-37.14a7.086 7.086 0 1114.075 1.657 304.471 304.471 0 00-2.078 35.483c0 80.153 31.062 155.359 87.464 211.763 56.402 56.403 131.603 87.465 211.749 87.465 8.153 0 16.447-.34 24.652-1.011a7.086 7.086 0 111.155 14.127 317.96 317.96 0 01-25.803 1.058z" fill="#b27214"/></svg>