<svg xmlns="http://www.w3.org/2000/svg" viewBox="0 0 512 512"><path d="M20.135 443.805l6.765 23.679c2.612 9.124 12.507 16.591 21.999 16.591h414.202c9.492 0 19.387-7.467 21.999-16.591l6.765-23.679H20.135z" fill="#e8d6bd"/><path d="M440.09 308.314v67.745H54.652c0-16.936-9.204-16.936-9.204-33.873 0-16.936 9.204-16.936 9.204-33.873H440.09z" fill="#b75548"/><path d="M440.09 376.059v67.745H54.652c0-16.936-9.204-16.936-9.204-33.873 0-16.936 9.204-16.936 9.204-33.873H440.09zm0-135.478v67.734H54.652c0-16.936-9.204-16.936-9.204-33.861 0-16.936 9.204-16.936 9.204-33.873H440.09z" fill="#f7cd95"/><path d="M269.991 109.233c22.873 0 41.42 18.547 41.42 41.42 0 30.605-24.806 55.411-55.411 55.411s-55.411-24.806-55.411-55.411c0-22.873 18.547-41.42 41.42-41.42 4.913 0 9.619.863 13.991 2.428a41.422 41.422 0 0113.991-2.428z" fill="#ef5352"/><path d="M474.607 229.075v214.729H440.09V240.58H54.652c-9.527 0-17.258-7.732-17.258-17.258 0-9.538 7.732-17.258 17.258-17.258h396.944c12.656 0 23.011 10.355 23.011 23.011z" fill="#8e4238"/><g fill="#700d00"><path d="M503.371 435.178h-20.135V229.074c0-17.446-14.194-31.64-31.64-31.64H299.667c12.522-11.697 20.371-28.334 20.371-46.781 0-27.596-22.451-50.047-50.047-50.047-1.534 0-3.056.094-4.571.232 5.264-36.306 36.58-64.289 74.321-64.289 4.767 0 8.629-3.862 8.629-8.629s-3.862-8.629-8.629-8.629c-47.321 0-86.424 35.777-91.733 81.698a50.308 50.308 0 00-5.998-.383c-27.596 0-50.047 22.451-50.047 50.047 0 18.446 7.849 35.084 20.371 46.781H54.652c-14.274 0-25.888 11.614-25.888 25.888 0 10.929 6.811 20.291 16.409 24.082-.636 2.173-1.585 3.928-2.706 5.99-2.516 4.63-5.649 10.394-5.649 21.054 0 10.66 3.133 16.424 5.649 21.056 2.064 3.797 3.555 6.54 3.555 12.814s-1.491 9.017-3.555 12.815c-2.517 4.63-5.649 10.394-5.649 21.056 0 10.661 3.133 16.424 5.649 21.056 2.064 3.797 3.555 6.54 3.555 12.814 0 6.275-1.491 9.019-3.555 12.817-2.517 4.631-5.649 10.395-5.649 21.059 0 10.662 3.133 16.425 5.649 21.058.796 1.465 1.505 2.774 2.078 4.188H8.629A8.627 8.627 0 000 443.81a8.627 8.627 0 008.629 8.629h4.996l4.977 17.417c3.661 12.815 16.968 22.852 30.297 22.852h414.202c13.328 0 26.635-10.039 30.298-22.852l4.976-17.417h4.996A8.627 8.627 0 00512 443.81a8.63 8.63 0 00-8.629-8.632zM209.22 150.652c0-18.08 14.709-32.789 32.789-32.789 3.803 0 7.528.647 11.076 1.919.028.01.058.013.085.023.413.144.839.258 1.278.337.068.013.137.021.205.031.435.068.877.114 1.33.114a8.773 8.773 0 001.361-.114c.069-.012.137-.018.205-.031a8.48 8.48 0 001.278-.337c.028-.009.058-.013.085-.023a32.701 32.701 0 0111.076-1.919c18.08 0 32.789 14.709 32.789 32.789 0 25.794-20.985 46.78-46.78 46.78s-46.777-20.986-46.777-46.78zM54.652 214.691l396.944.001c7.931 0 14.382 6.451 14.382 14.382v206.105H448.72V240.58a8.627 8.627 0 00-8.629-8.629l-385.438-.001c-4.759 0-8.629-3.87-8.629-8.629-.002-4.76 3.869-8.63 8.628-8.63zm2.98 208.059c-2.064-3.798-3.555-6.542-3.555-12.817 0-6.276 1.491-9.02 3.555-12.818 1.735-3.193 3.762-6.925 4.854-12.428h343.087c4.767 0 8.629-3.862 8.629-8.629s-3.862-8.629-8.629-8.629H62.486c-1.092-5.502-3.119-9.234-4.854-12.427-2.064-3.797-3.555-6.54-3.555-12.814s1.491-9.018 3.555-12.816c1.735-3.192 3.762-6.924 4.854-12.426h57.173c4.767 0 8.629-3.862 8.629-8.629s-3.862-8.629-8.629-8.629H62.486c-1.092-5.502-3.119-9.234-4.854-12.427-2.064-3.797-3.555-6.54-3.555-12.814s1.491-9.017 3.555-12.814c1.735-3.193 3.762-6.925 4.854-12.427l368.975.005v185.97H62.486c-1.092-5.505-3.119-9.238-4.854-12.431zm419.172 42.362c-1.546 5.409-8.078 10.336-13.703 10.336H48.899c-5.626 0-12.157-4.927-13.702-10.336l-3.621-12.676h448.85l-3.622 12.676z"/><path d="M405.573 299.689H154.175c-4.767 0-8.629 3.862-8.629 8.629s3.862 8.629 8.629 8.629h251.398c4.767 0 8.629-3.862 8.629-8.629s-3.862-8.629-8.629-8.629z"/></g></svg>