<svg xmlns="http://www.w3.org/2000/svg" viewBox="0 0 430 430"><path d="M85 270c15.601 0 29.345 7.941 37.417 20H170v-90h-70v-40h70v-30H60l-50 60v50h30v30H10v20h37.582c8.073-12.059 21.817-20 37.418-20zM69.866 160H70v40H40.718l29.148-40z" fill="#78b9eb"/><path d="M170 130v160h137.582c8.073-12.059 21.816-20 37.418-20 15.601 0 29.345 7.941 37.418 20H420v-20h-20l-10-30h30v-20l-90-20-50-70H170zm94.561 30l28.571 40H200v-40h64.561z" fill="#5a8bb0"/><path fill="#fff" d="M200 200h93.133l-28.572-40H200z"/><path d="M47.582 290H0v30h40.283a45.364 45.364 0 01-.283-5c0-9.252 2.795-17.85 7.582-25zM430 290h-47.582c-8.073-12.059-21.816-20-37.418-20v22.5c12.427 0 22.5 10.073 22.5 22.5s-10.073 22.5-22.5 22.5V360c23.162 0 42.228-17.501 44.717-40H430v-30zm-122.418 0H122.417c-8.073-12.059-21.816-20-37.417-20v22.5c12.427 0 22.5 10.073 22.5 22.5S97.427 337.5 85 337.5V360c23.162 0 42.228-17.501 44.717-40h170.566a45.364 45.364 0 01-.283-5c0-9.252 2.795-17.85 7.582-25z" fill="#565659"/><path d="M62.5 315c0-12.427 10.073-22.5 22.5-22.5V270c-15.601 0-29.345 7.941-37.418 20A44.785 44.785 0 0040 315c0 1.691.102 3.357.283 5 2.488 22.499 21.555 40 44.717 40v-22.5c-12.427 0-22.5-10.073-22.5-22.5z" fill="#616064"/><path d="M62.5 315c0 12.427 10.073 22.5 22.5 22.5v-45c-12.427 0-22.5 10.073-22.5 22.5z" fill="#cdcdd0"/><path d="M85 337.5c12.427 0 22.5-10.073 22.5-22.5S97.427 292.5 85 292.5v45z" fill="#acabb1"/><path d="M322.5 315c0-12.427 10.073-22.5 22.5-22.5V270c-15.601 0-29.345 7.941-37.418 20A44.785 44.785 0 00300 315c0 1.691.102 3.357.283 5 2.488 22.499 21.555 40 44.717 40v-22.5c-12.427 0-22.5-10.073-22.5-22.5z" fill="#616064"/><path d="M322.5 315c0 12.427 10.073 22.5 22.5 22.5v-45c-12.427 0-22.5 10.073-22.5 22.5z" fill="#cdcdd0"/><path d="M345 337.5c12.427 0 22.5-10.073 22.5-22.5s-10.073-22.5-22.5-22.5v45z" fill="#acabb1"/><path fill="#ff5023" d="M10 240h30v30H10z"/><path fill="#ff9811" d="M400 270h20v-30h-30z"/><path fill="#fff" d="M70 160h-.134l-29.148 40H70zm30 0h70v40h-70z"/><path fill="#bf3c1a" d="M240 70h30v40h-30zm-70 0h40v40h-40z"/><path fill="#ff5023" d="M130 70h40v40h-40zm-60 0h30v40H70z"/><path fill="#ff9811" d="M100 70h30v40h-30zm110 0h30v40h-30z"/><path fill="#565659" d="M100 110h30v20h-30zm110 0h30v20h-30z"/></svg>