<svg xmlns="http://www.w3.org/2000/svg" viewBox="0 0 512 512"><path d="M454.173 228.816c.537-3.534.817-7.152.817-10.835 0-39.522-32.039-71.561-71.561-71.561a71.418 71.418 0 00-23.758 4.055c-21.586-37.552-62.102-62.841-108.525-62.841-55.641 0-102.788 36.333-119.034 86.564-68.582.59-123.997 56.358-123.997 125.077 0 69.085 56.004 125.09 125.09 125.09h264.862c58.443 0 105.82-47.377 105.82-105.82-.002-37.832-19.858-71.021-49.714-89.729z" fill="#d5ebef"/><path d="M422.16 400.27H157.298c-69.085 0-125.09-56.005-125.09-125.09 0-18.492 1.867-38.222 5.928-57.198-18.715 21.862-30.021 50.255-30.021 81.293 0 69.085 56.004 125.09 125.09 125.09h264.862c35.371 0 66.684-17.358 85.899-44.016-17.39 12.533-38.734 19.921-61.806 19.921z" opacity=".1"/><path d="M298.189 301.013a8.115 8.115 0 00-8.115 8.115c0 7.157-5.822 12.98-12.979 12.98s-12.98-5.823-12.98-12.98a8.115 8.115 0 00-8.115-8.115 8.115 8.115 0 00-8.115 8.115c0 7.157-5.823 12.98-12.98 12.98s-12.979-5.823-12.979-12.98a8.115 8.115 0 00-8.115-8.115 8.115 8.115 0 00-8.115 8.115c0 16.106 13.103 29.21 29.209 29.21 8.285 0 15.774-3.467 21.095-9.025 5.321 5.559 12.811 9.025 21.095 9.025 16.106 0 29.209-13.104 29.209-29.21a8.115 8.115 0 00-8.115-8.115zm-139.622-42.441c-11.515 0-20.884 9.369-20.884 20.883a8.115 8.115 0 008.115 8.115 8.115 8.115 0 008.115-8.115 4.66 4.66 0 014.655-4.654 4.66 4.66 0 014.655 4.654 8.115 8.115 0 008.115 8.115 8.115 8.115 0 008.115-8.115c-.003-11.514-9.371-20.883-20.886-20.883zm304.249-33.781a80.29 80.29 0 00.289-6.809c0-43.933-35.743-79.676-79.676-79.676-6.813 0-13.548.863-20.099 2.572-24.398-38.006-66.8-61.357-112.184-61.357-56.055 0-105.525 34.618-124.866 86.736-33.168 1.691-64.107 15.488-87.645 39.216C13.72 230.585 0 263.898 0 299.275c0 73.45 59.755 133.205 133.203 133.205h264.862C460.889 432.48 512 381.368 512 318.545c0-37.759-18.29-72.429-49.184-93.754zM398.065 416.25H133.203c-64.499 0-116.974-52.474-116.974-116.975 0-31.066 12.049-60.32 33.926-82.371 21.864-22.04 50.994-34.323 82.025-34.589a8.115 8.115 0 007.652-5.617c15.659-48.417 60.392-80.946 111.313-80.946 41.763 0 80.651 22.519 101.49 58.77a8.117 8.117 0 009.73 3.611 63.266 63.266 0 0121.063-3.595c34.985 0 63.447 28.462 63.447 63.447 0 3.213-.243 6.45-.724 9.618a8.113 8.113 0 003.714 8.093c28.745 18.012 45.906 48.985 45.906 82.852-.001 53.871-43.831 97.702-97.706 97.702zm-44.632-157.678c-11.515 0-20.884 9.369-20.884 20.883a8.115 8.115 0 008.115 8.115 8.115 8.115 0 008.115-8.115 4.66 4.66 0 014.655-4.654 4.66 4.66 0 014.655 4.654 8.115 8.115 0 008.115 8.115 8.115 8.115 0 008.115-8.115c-.002-11.514-9.371-20.883-20.886-20.883z"/></svg>