<svg xmlns="http://www.w3.org/2000/svg" viewBox="0 0 256.614 256.614"><path d="M52.237 3.562c-12.013 4.65-22.141 22.882-30.904 31.781-11.471 11.65-31.969 27.084-14.65 42.754 12.527 11.333 32.244 8.127 42.313-3.386l30.619-51.032C82.532 8.75 65.75-1.67 52.237 3.562z" fill="#723f1d"/><path d="M204.377 3.562c12.013 4.65 22.143 22.882 30.906 31.781 11.471 11.649 31.967 27.084 14.647 42.754-12.525 11.333-32.244 8.127-42.313-3.386l-30.619-51.032C174.083 8.75 190.866-1.67 204.377 3.562z" fill="#b56f40"/><path d="M129.207 204.691L91.11 191.174c-4.722 18.178-7.357 52.804 14.475 61.744 25.05 10.257 23.622-34.862 23.622-48.227zm4.34 0l38.097-13.517c4.723 18.178 7.358 52.804-14.474 61.744-25.051 10.257-23.623-34.862-23.623-48.227z" fill="#723f1d"/><path d="M83.459 128.338c-10.783 5.069-16.553 24.756-18.141 35.164-2.856 18.725 11.004 41.266 30.478 34.635l4.915-60.217c.708-9.657-8.669-13.615-17.252-9.582zm95.834 0c10.785 5.069 16.556 24.756 18.142 35.164 2.857 18.725-11.003 41.266-30.477 34.635l-4.915-60.217c-.707-9.657 8.668-13.615 17.25-9.582z" fill="#b56f40"/><path d="M100.903 129.027c23.954-23.265 63.417-10.908 73.394 18.364 7.386 21.665 7.984 50.637-10.541 66.819-19.244 16.813-52.811 12.247-68.541-6.363-17.932-21.215-14.248-59.456 5.688-78.82z" fill="#e0c7a4"/><path d="M93.384 134.772s40.148 46.61 76.806 0H93.384z" fill="#c1a584"/><path d="M211.456 47.945c-16.361-23.886-49.622-34.227-80.08-33.474-30.456-.753-63.718 9.588-80.079 33.474-25.266 36.884 4.774 76.684 42.087 88.836 12.013 3.911 25.063 6.034 37.992 6.161 12.931-.127 25.979-2.25 37.993-6.161 37.315-12.152 67.353-51.952 42.087-88.836z" fill="#f2e2c9"/><path d="M71.7 122.395c-6.615-3.224-10.702-10.201-7.269-21.139 5.813-18.514 35.644-20.244 38.315 1.54 2.283 18.614-18.75 25.589-31.046 19.599zm119.355 0c6.615-3.224 10.703-10.201 7.267-21.139-5.812-18.514-35.642-20.244-38.314 1.54-2.282 18.614 18.751 25.589 31.047 19.599z" fill="#eda9a2"/><path d="M92.737 47.007c36.548-3.632 51.13 50.509 14.257 59.534-39.267 9.615-60.479-54.94-14.257-59.534z" fill="#b56f40"/><circle cx="94.596" cy="84.529" r="16.895" fill="#fff"/><circle cx="94.596" cy="84.529" r="11.068"/><circle cx="102.428" cy="77.557" r="5.53" fill="#fff"/><circle cx="167.48" cy="84.529" r="16.894" fill="#fff"/><circle cx="167.479" cy="84.529" r="11.068"/><circle cx="175.312" cy="77.557" r="5.53" fill="#fff"/><path d="M148.358 104.324c-3.809-10.558-30.06-10.636-33.889.008-5.408 15.043 38.832 13.723 33.889-.008zm-9.811-14.604c-.051-.008-.025-.018 0-.027.025.01.05.019 0 .027z"/><path d="M148.797 117.32c-5.709 18.105-28.696 14.972-35.312-.685-1.436-3.396-6.375-.47-4.952 2.895 4.05 9.583 13.251 15.802 23.616 16.179 10.703.389 19.081-7.037 22.18-16.863 1.116-3.538-4.421-5.04-5.532-1.526z"/><path d="M84.891 40.262c6.168-.182 12.645 4.588 5.445 11.18-4.604 4.215-13.705 2.622-13.231-4.481.306-4.596 3.988-6.586 7.786-6.699z" fill="#723f1d"/><path d="M177.866 40.262c-6.169-.182-12.646 4.588-5.447 11.18 4.604 4.215 13.704 2.622 13.232-4.481-.307-4.596-3.989-6.586-7.785-6.699z" fill="#b56f40"/><path d="M140.115 160.683c36.836 7.467 29.958 60.207-13.542 53.051-39.985-6.578-31.14-62.105 13.542-53.051z" fill="#f2e2c9"/></svg>