<svg xmlns="http://www.w3.org/2000/svg" viewBox="0 0 379.673 379.673"><path d="M187.289 262.762c-8.178 0-14.808 6.63-14.808 14.81v77.403h-27.785c-6.82 0-12.349 5.529-12.349 12.349s5.529 12.349 12.349 12.349h45.053c6.82 0 12.349-5.529 12.349-12.349v-89.752c0-8.179-6.63-14.81-14.809-14.81z" fill="#b36f0f"/><path d="M249.866 262.762c-8.178 0-14.808 6.63-14.808 14.81v77.403h-27.785c-6.82 0-12.349 5.529-12.349 12.349s5.529 12.349 12.349 12.349h45.053c6.82 0 12.349-5.529 12.349-12.349v-89.752c0-8.179-6.63-14.81-14.809-14.81z" fill="#d98712"/><path d="M342.656 131.671c-7.899 0-14.303 6.404-14.303 14.303v4.517c-15.239-13.679-35.378-22.008-57.467-22.008h-59.717v-39.35c0-37.521-27.244-68.662-63.024-74.769l1.265-1.265a6.6 6.6 0 00-9.333-9.333l-4.854 4.853v-2.02a6.599 6.599 0 00-13.198 0v7.841c-35.573 6.28-62.604 37.32-62.604 74.694v100.611c0 61.239 49.646 110.885 110.885 110.885h100.579c47.537 0 86.073-38.537 86.073-86.073v-68.582c.001-7.9-6.403-14.304-14.302-14.304z" fill="#ffb648"/><path d="M292.771 172.76a3.257 3.257 0 013.257 3.256l.019.001c-1.713 45.831-39.409 82.462-85.659 82.462s-83.946-36.631-85.658-82.462l.019-.001a3.256 3.256 0 013.256-3.256h164.766z" fill="#ff9e16"/><path d="M105.839 92.885H45.5c-12.584 0-22.785 10.201-22.785 22.786 0 12.583 10.201 22.784 22.785 22.784h60.339c12.583 0 22.786-10.201 22.786-22.784-.001-12.585-10.203-22.786-22.786-22.786z" fill="#d98712"/><circle cx="131.681" cy="73.226" r="7.97" fill="#333e48"/></svg>