<svg xmlns="http://www.w3.org/2000/svg" viewBox="0 0 495 495"><path d="M249.581 130.222a74.26 74.26 0 0120 2.749V55.498c-6.545-.873-13.22-1.332-20-1.332s-13.455.458-20 1.332v77.473a74.26 74.26 0 0120-2.749zm20-115.008V0h-40v15.214c6.575-.688 13.246-1.048 20-1.048s13.425.359 20 1.048zm-72.104 136.329l-67.063-38.719a150.579 150.579 0 00-20.052 34.61l67.065 38.72c3.435-13.346 10.495-25.247 20.05-34.611zM82.29 85.039l-20 34.641 13.192 7.617A190.71 190.71 0 0195.54 92.69l-13.25-7.651zm-20 204.719l20 34.641 13.251-7.65a190.592 190.592 0 01-20.058-34.607l-13.193 7.616zm115.137-66.475l-67.065 38.72a150.652 150.652 0 0020.052 34.61l67.063-38.719c-9.555-9.364-16.615-21.265-20.05-34.611zm52.154 170.941v15.214h40v-15.214c-6.575.688-13.246 1.048-20 1.048s-13.425-.36-20-1.048zm187.292-69.826l20-34.641-13.192-7.617a190.71 190.71 0 01-20.058 34.607l13.25 7.651zm-115.189-66.503l67.063 38.719a150.579 150.579 0 0020.052-34.61l-67.065-38.72c-3.434 13.345-10.494 25.246-20.05 34.611zM436.873 119.68l-20-34.641-13.251 7.65a190.592 190.592 0 0120.058 34.607l13.193-7.616zm-115.137 66.474l67.065-38.72a150.652 150.652 0 00-20.052-34.61l-67.063 38.719c9.554 9.364 16.614 21.265 20.05 34.611z" fill="#ffa733"/><path d="M130.414 296.613a150.579 150.579 0 01-20.052-34.61c-7.297-17.668-11.334-37.012-11.334-57.284s4.037-39.616 11.334-57.284a150.652 150.652 0 0120.052-34.61c23.7-30.663 58.946-51.964 99.167-57.327 6.545-.873 13.22-1.332 20-1.332s13.455.458 20 1.332c40.221 5.362 75.466 26.664 99.167 57.327a150.579 150.579 0 0120.052 34.61c7.297 17.668 11.334 37.012 11.334 57.284s-4.037 39.616-11.334 57.284a150.652 150.652 0 01-20.052 34.61c-13.231 17.119-30.061 31.317-49.347 41.456l13.779 37.856c28.026-13.74 52.2-34.162 70.443-59.177a190.592 190.592 0 0020.058-34.607c10.567-23.67 16.454-49.871 16.454-77.422s-5.886-53.752-16.454-77.422a190.71 190.71 0 00-20.058-34.607c-30.977-42.477-79.062-71.714-134.041-77.476-6.575-.688-13.246-1.048-20-1.048s-13.425.359-20 1.048C174.603 20.975 126.517 50.213 95.54 92.689a190.592 190.592 0 00-20.058 34.607c-10.567 23.67-16.454 49.871-16.454 77.422s5.886 53.752 16.454 77.422a190.71 190.71 0 0020.058 34.607c18.243 25.015 42.417 45.437 70.443 59.177l13.779-37.856c-19.287-10.138-36.116-24.336-49.348-41.455z" fill="#ffc477"/><path d="M249.581 395.271c6.754 0 13.425-.359 20-1.048a189.446 189.446 0 0026.022-4.584l-13.778-37.856a150.497 150.497 0 01-32.244 3.488 150.558 150.558 0 01-32.243-3.487l-13.778 37.855a189.446 189.446 0 0026.022 4.584 191.797 191.797 0 0019.999 1.048z" fill="#ffc477"/><path d="M203.559 389.64l13.778-37.855 26.502-72.813c-13.947-1.069-26.825-5.989-37.579-13.706l-26.498 72.803-13.779 37.856L137.202 455h42.568l23.789-65.36zm89.343-124.374a75.05 75.05 0 008.782-7.372c9.555-9.364 16.615-21.265 20.051-34.611 1.528-5.937 2.342-12.157 2.342-18.564s-.814-12.628-2.342-18.564c-3.436-13.346-10.496-25.247-20.051-34.611-8.848-8.672-19.843-15.149-32.104-18.572a74.26 74.26 0 00-20-2.749v148.993c1.934 0 3.845-.098 5.742-.243l26.501 72.812 13.778 37.856L319.392 455h42.568l-28.781-79.075-13.779-37.856-26.498-72.803z" fill="#96c8ef"/><path fill="#ff5023" d="M20 455h455v40H20z"/><path d="M249.581 130.222a74.26 74.26 0 00-20 2.749c-12.261 3.423-23.256 9.9-32.104 18.572-9.555 9.364-16.615 21.265-20.051 34.611-1.528 5.937-2.342 12.157-2.342 18.564s.814 12.628 2.342 18.564c3.436 13.346 10.496 25.247 20.051 34.611a75.132 75.132 0 008.782 7.372c10.754 7.716 23.632 12.636 37.579 13.706 1.897.146 3.808.243 5.742.243V130.222z" fill="#b3d8f4"/></svg>