<svg xmlns="http://www.w3.org/2000/svg" viewBox="0 0 512 512"><path d="M120.163 472.816h31.347v31.347h-31.347zm240.327 0h31.347v31.347H360.49z" fill="#fff"/><path d="M391.837 472.816H120.163V28.735c0-11.542 9.356-20.898 20.898-20.898h229.878c11.542 0 20.898 9.356 20.898 20.898v444.081z" fill="#79cae8"/><path fill="#4b92b9" d="M120.163 185.553h271.673v26.122H120.163z"/><path d="M168.783 316.167v-60.604c0-6.348 5.146-11.494 11.494-11.494s11.494 5.146 11.494 11.494v60.604c0 6.348-5.146 11.494-11.494 11.494-6.347 0-11.494-5.146-11.494-11.494zm0-174.498V81.065c0-6.348 5.146-11.494 11.494-11.494s11.494 5.146 11.494 11.494v60.604c0 6.348-5.146 11.494-11.494 11.494-6.347 0-11.494-5.146-11.494-11.494z" fill="#fff"/><path d="M370.939 0H141.061c-15.844 0-28.735 12.89-28.735 28.735V512h47.02v-31.347h193.306V512h47.02V28.735C399.673 12.89 386.783 0 370.939 0zM128 219.514h256V464.98H128V219.514zm256-15.673H128v-10.449h256v10.449zM141.061 15.673h229.878c7.201 0 13.061 5.859 13.061 13.061v148.984H128V28.735c0-7.203 5.859-13.062 13.061-13.062zm2.612 480.654H128v-15.673h15.673v15.673zm240.327 0h-15.673v-15.673H384v15.673z"/><path d="M180.277 161c10.659 0 19.331-8.672 19.331-19.331V81.065c0-10.659-8.672-19.331-19.331-19.331-10.659 0-19.331 8.672-19.331 19.331v60.604c.001 10.659 8.672 19.331 19.331 19.331zm-3.657-79.935c0-2.017 1.64-3.657 3.657-3.657s3.657 1.64 3.657 3.657v60.604c0 2.017-1.641 3.657-3.657 3.657s-3.657-1.641-3.657-3.657V81.065zm3.657 155.168c-10.659 0-19.331 8.672-19.331 19.331v60.604c0 10.659 8.672 19.331 19.331 19.331 10.659 0 19.331-8.672 19.331-19.331v-60.604c0-10.66-8.672-19.331-19.331-19.331zm3.657 79.934c0 2.017-1.641 3.657-3.657 3.657s-3.657-1.64-3.657-3.657v-60.604c0-2.017 1.64-3.657 3.657-3.657s3.657 1.64 3.657 3.657v60.604z"/></svg>