<svg xmlns="http://www.w3.org/2000/svg" viewBox="0 0 360 360"><path d="M180 160c8.284 0 15 6.716 15 15s-6.716 15-15 15v130h104l-78.47-196.176L180 110.402V160zm35 80c8.284 0 15 6.716 15 15 0 8.284-6.716 15-15 15-8.284 0-15-6.716-15-15 0-8.284 6.716-15 15-15z" fill="#ff9811"/><path d="M180 190c-8.284 0-15-6.716-15-15s6.716-15 15-15v-49.598l-25.53 13.424L76 320h104V190zm-45 110c-8.284 0-15-6.716-15-15s6.716-15 15-15 15 6.716 15 15-6.716 15-15 15z" fill="#ffda44"/><path fill="#ea348b" d="M180 60V0l-21.632 43.828L110 50.858l35 34.116-8.262 48.174 17.732-9.322L180 110.402z"/><path fill="#b02768" d="M180 110.402l25.53 13.422 17.736 9.324L215 84.974l35-34.116-48.367-7.03L180 0v60z"/><path fill="#ea348b" d="M76 320H60v40h120v-40z"/><path fill="#b02768" d="M284 320H180v40h120v-40z"/><circle cx="135" cy="285" r="15" fill="#fff"/><circle cx="215" cy="255" r="15" fill="#fff"/><circle cx="180" cy="175" r="15" fill="#fff"/></svg>