<svg xmlns="http://www.w3.org/2000/svg" viewBox="0 0 289.958 289.958"><path d="M33.208 205.449L203.294 35.364c1.894-3.443 1.522-7.792-1.395-10.719-17.677-17.686-46.363-17.686-64.058 0L22.508 139.977c-17.686 17.686-17.686 46.372 0 64.068 2.917 2.917 7.257 3.289 10.7 1.404zM257.313 83.956L82.09 259.179c-1.278 3.316-.607 7.194 2.057 9.867 18.049 18.049 47.324 18.049 65.372 0L267.18 151.385c18.049-18.049 18.049-47.314 0-65.363-2.673-2.673-6.551-3.335-9.867-2.066z" fill="#f6c37a"/><path d="M94.757 259.387c-3.606-3.606-3.606-9.459 0-13.074L256.942 84.128c-1.024.453-2.002 1.051-2.836 1.885L84.147 255.962c-3.606 3.615-3.606 9.468 0 13.074 18.049 18.049 47.324 18.049 65.363 0l5.391-5.391c-18.094 13.474-43.717 12.16-60.144-4.258zm-61.576-53.92l8.934-8.925c-3.09.942-6.551.299-8.997-2.138-16.336-16.345-16.862-43.989-2.945-62.083l-7.665 7.665c-17.686 17.686-17.686 46.372 0 64.068 2.908 2.899 7.239 3.28 10.673 1.413z" fill="#ddaf6d"/><path d="M279.33 10.628c14.162 14.162 14.162 37.139 0 51.31L61.93 279.329c-14.162 14.171-37.139 14.171-51.301 0-14.162-14.162-14.162-37.139 0-51.301l217.4-217.4c14.162-14.171 37.14-14.171 51.301 0z" fill="#e37948"/><path d="M208.295 54.49a9.068 9.068 0 00-9.07 9.07v18.049h-18.194c-3.833 0-7.058 2.374-8.399 5.717a9.124 9.124 0 00-.725 3.561v18.058h-17.569l-.408-.082a8.932 8.932 0 00-3.588.761c-3.343 1.341-5.699 4.576-5.699 8.39l.217 1.142v16.816h-18.185c-3.824 0-7.049 2.374-8.399 5.708a9.026 9.026 0 00-.734 3.579v18.058H100.01l-.435-.091c-1.296 0-2.51.281-3.615.77-3.334 1.332-5.69 4.576-5.69 8.381l.227 1.142v16.835H72.314c-5.011 0-9.079 4.05-9.079 9.061s4.068 9.079 9.079 9.079h26.874l.399.082a9.068 9.068 0 009.07-9.07v-18.049h17.523l.435.091c5.011 0 9.079-4.068 9.079-9.079V154.13h17.858l.39.082c5.02 0 9.079-4.05 9.079-9.061v-18.058h17.559l.399.082c5.01 0 9.061-4.05 9.061-9.061V99.766h17.822l.444.091c5.02 0 9.079-4.059 9.079-9.07V63.56a9.087 9.087 0 00-9.09-9.07z" fill="#efc75e"/><path d="M70.991 270.269c-14.162 14.171-37.139 14.171-51.301 0-14.162-14.162-14.162-37.139 0-51.301l-9.061 9.061c-14.162 14.162-14.162 37.139 0 51.301 14.162 14.171 37.139 14.171 51.301 0l217.4-217.391-208.339 208.33z" fill="#cc6d41"/></svg>