<svg xmlns="http://www.w3.org/2000/svg" viewBox="0 0 504.8 504.8"><path d="M279.6 47.2c0 36-34.4 73.6-27.2 73.6 7.2 0-27.2-37.6-27.2-73.6S237.2 0 252.4 0s27.2 11.2 27.2 47.2z" fill="#528c00"/><path d="M252.4 0c15.2 0 27.2 11.2 27.2 47.2s-34.4 73.6-27.2 73.6" fill="#68a519"/><path d="M279.6 47.2c0-16-2.4-27.2-6.4-34.4 1.6 7.2 2.4 16 2.4 27.2 0 31.2-19.2 64-23.2 76 4.8-10.4 27.2-40 27.2-68.8zM252.4 116c-4-12-23.2-44.8-23.2-76 0-11.2.8-20 2.4-27.2-4 7.2-6.4 18.4-6.4 34.4 0 28.8 22.4 58.4 27.2 68.8 0 .8 0 .8 0 0zm-.8 2.4c-.8 1.6-.8 2.4.8 2.4-.8 0-.8-.8-.8-2.4zm.8 2.4c.8 0 .8-.8.8-3.2 0 2.4 0 3.2-.8 3.2z" fill="#80bc2b"/><path d="M223.6 100c22.4 22.4 24.8 67.2 28.8 62.4 4.8-4.8-40-6.4-62.4-28.8s-21.6-36.8-12.8-46.4c9.6-8.8 24-9.6 46.4 12.8z" fill="#528c00"/><path d="M177.2 87.2c9.6-9.6 24-9.6 46.4 12.8s24.8 67.2 28.8 62.4" fill="#68a519"/><g fill="#80bc2b"><path d="M223.6 100c-9.6-9.6-18.4-15.2-24.8-17.6 5.6 3.2 11.2 8.8 18.4 15.2 19.2 19.2 28 52 32.8 61.6-4-9.6-8.8-41.6-26.4-59.2z"/><path d="M250 159.2c-9.6-4.8-42.4-13.6-61.6-32.8-7.2-7.2-12-12.8-15.2-18.4 2.4 7.2 7.2 15.2 17.6 24.8 16.8 18.4 48.8 23.2 59.2 26.4 0 .8 0 .8 0 0zm.8 1.6c.8 1.6 1.6 2.4 2.4 1.6-1.6.8-2.4 0-2.4-1.6z"/><path d="M252.4 162.4c.8-.8 0-1.6-1.6-2.4 1.6.8 2.4 1.6 1.6 2.4z"/></g><path d="M188.4 327.2c24-16.8 65.6-12 62.4-16.8-3.2-4.8-12.8 36-36.8 52.8s-37.6 14.4-44 4c-7.2-9.6-5.6-23.2 18.4-40z" fill="#528c00"/><path d="M170 367.2c-7.2-9.6-5.6-23.2 18.4-40.8 24-16.8 65.6-12 62.4-16.8" fill="#68a519"/><g fill="#80bc2b"><path d="M188.4 327.2c-10.4 7.2-16.8 14.4-20 20 4-4.8 9.6-9.6 17.6-14.4 20.8-15.2 52-17.6 61.6-20-9.6.8-40 .8-59.2 14.4z"/><path d="M247.6 312c-5.6 8-19.2 36.8-40 51.2-7.2 5.6-14.4 8.8-19.2 11.2 7.2-.8 15.2-4.8 25.6-12 19.2-12.8 28.8-41.6 33.6-50.4zm1.6 0c1.6 0 2.4-.8 1.6-1.6 0 .8 0 .8-1.6 1.6z"/><path d="M250.8 310.4c-.8-.8-1.6 0-2.4.8.8-.8 1.6-1.6 2.4-.8z"/></g><path d="M206 391.2c15.2-16 47.2-19.2 43.2-22.4-3.2-3.2-4 28.8-19.2 44.8s-25.6 16-32 10.4c-6.4-6.4-6.4-16.8 8-32.8z" fill="#528c00"/><path d="M198.8 424c-7.2-6.4-7.2-16.8 7.2-32.8 15.2-16 47.2-19.2 43.2-22.4" fill="#68a519"/><g fill="#80bc2b"><path d="M206 391.2c-6.4 7.2-10.4 13.6-11.2 18.4 2.4-4 5.6-8 10.4-13.6 13.6-14.4 36-21.6 42.4-24.8-6.4 2.4-28.8 6.4-41.6 20zm41.6-20c-3.2 7.2-8 30.4-21.6 44.8-4.8 4.8-8.8 8.8-12.8 11.2 4.8-1.6 10.4-5.6 17.6-12.8 12-13.6 15.2-36.8 16.8-43.2zm1.6-.8c.8-.8 1.6-.8.8-1.6 0 .8 0 .8-.8 1.6z"/><path d="M250 368.8c-.8-.8-.8 0-1.6.8.8-.8.8-.8 1.6-.8z"/></g><path d="M190 159.2c32.8 8 60.8 41.6 62.4 36 1.6-5.6-39.2 12-72 4S139.6 180 142 168.8c3.2-10.4 15.2-17.6 48-9.6z" fill="#528c00"/><path d="M142 169.6c2.4-11.2 15.2-17.6 47.2-10.4 32.8 8 60.8 41.6 62.4 36" fill="#68a519"/><path d="M190 159.2c-14.4-3.2-24.8-4-32-2.4 7.2.8 15.2 1.6 25.6 4 28.8 6.4 55.2 28 64.8 33.6-8.8-6.4-32.8-28.8-58.4-35.2zm58.4 35.2c-11.2.8-44.8 8-72.8.8-10.4-2.4-18.4-4.8-24.8-8 6.4 4.8 16 8.8 29.6 12 25.6 6.4 56.8-3.2 68-4.8zm.8.8c1.6.8 2.4.8 2.4 0 0 .8-.8.8-2.4 0zm3.2 0c0-.8-.8-.8-2.4-.8 1.6 0 2.4 0 2.4.8z" fill="#80bc2b"/><path d="M182 272.8c32-8 73.6 8 72 3.2-1.6-5.6-28.8 28.8-61.6 37.6-32 8-44.8 2.4-48-8.8-3.2-12 4.8-24 37.6-32z" fill="#528c00"/><path d="M144.4 304c-3.2-11.2 4.8-22.4 37.6-31.2 32-8 73.6 8 72 3.2" fill="#68a519"/><path d="M182 272.8c-14.4 4-24 8-29.6 12.8 6.4-3.2 14.4-5.6 24-8 28-7.2 61.6-.8 72.8-.8-10.4-1.6-41.6-11.2-67.2-4zm67.2 4c-9.6 5.6-36 28-64 35.2-10.4 2.4-18.4 4-25.6 4.8 7.2.8 17.6 0 32-3.2 26.4-7.2 48.8-30.4 57.6-36.8zm1.6 0c1.6 0 2.4 0 2.4-.8.8 0-.8.8-2.4.8zm2.4-1.6c0-.8-.8-.8-2.4 0h2.4z" fill="#80bc2b"/><path d="M174 213.6c37.6 0 78.4 28 78.4 21.6 0-5.6-40 21.6-78.4 21.6-37.6 0-49.6-9.6-49.6-21.6 0-12 12-21.6 49.6-21.6z" fill="#528c00"/><path d="M124.4 235.2c0-12 12-21.6 49.6-21.6s78.4 28 78.4 21.6" fill="#68a519"/><path d="M174 213.6c-16.8 0-28 1.6-36 4.8 8-1.6 16.8-1.6 28.8-1.6 33.6 0 68 15.2 80 18.4-10.4-4-42.4-21.6-72.8-21.6zm73.6 21.6c-12 3.2-47.2 18.4-80 18.4-12 0-21.6-.8-28.8-1.6 8 3.2 19.2 4.8 36 4.8 29.6 0 61.6-17.6 72.8-21.6zm1.6 0c1.6.8 3.2.8 3.2 0 0 .8-1.6.8-3.2 0zm3.2 0c0-.8-.8-.8-3.2 0 1.6-.8 3.2-.8 3.2 0z" fill="#80bc2b"/><path d="M281.2 100c-22.4 22.4-24 67.2-28.8 62.4-4.8-4.8 40-6.4 62.4-28.8s21.6-36.8 12.8-46.4c-9.6-8.8-24-9.6-46.4 12.8z" fill="#528c00"/><path d="M327.6 87.2c-9.6-9.6-24-9.6-46.4 12.8s-24 67.2-28.8 62.4" fill="#68a519"/><g fill="#80bc2b"><path d="M281.2 100c9.6-9.6 18.4-15.2 24.8-17.6-5.6 3.2-11.2 8.8-18.4 15.2-19.2 19.2-28 52-32.8 61.6 4-9.6 8.8-41.6 26.4-59.2z"/><path d="M254.8 159.2c9.6-4.8 42.4-13.6 61.6-32.8 7.2-7.2 12-12.8 15.2-18.4-2.4 7.2-7.2 15.2-17.6 24.8-16.8 18.4-48.8 23.2-59.2 26.4 0 .8 0 .8 0 0zm0 1.6c-.8 1.6-1.6 2.4-2.4 1.6.8.8 1.6 0 2.4-1.6zm-2.4 1.6c-.8-.8 0-1.6 1.6-2.4-1.6.8-2.4 1.6-1.6 2.4z"/></g><path d="M316.4 327.2c-24-16.8-65.6-12-62.4-16.8s12.8 36 36.8 52.8 37.6 14.4 44 4c7.2-9.6 5.6-23.2-18.4-40z" fill="#528c00"/><path d="M334.8 367.2c7.2-9.6 5.6-23.2-18.4-40.8-24-16.8-65.6-12-62.4-16.8" fill="#68a519"/><g fill="#80bc2b"><path d="M316.4 327.2c10.4 7.2 16.8 14.4 20 20-4-4.8-9.6-9.6-17.6-14.4-20.8-15.2-52-17.6-61.6-20 9.6.8 40 .8 59.2 14.4z"/><path d="M257.2 312c5.6 8 19.2 36.8 40 51.2 7.2 5.6 14.4 8.8 19.2 11.2-7.2-.8-15.2-4.8-25.6-12-19.2-12.8-28.8-41.6-33.6-50.4zm-1.6 0c-1.6 0-2.4-.8-1.6-1.6 0 .8.8.8 1.6 1.6z"/><path d="M254 310.4c.8-.8 1.6 0 2.4.8-.8-.8-1.6-1.6-2.4-.8z"/></g><path d="M298.8 391.2c-15.2-16-47.2-19.2-43.2-22.4 3.2-3.2 4 28.8 19.2 44.8s25.6 16 32 10.4c6.4-6.4 6.4-16.8-8-32.8z" fill="#528c00"/><path d="M306 424c7.2-6.4 7.2-16.8-7.2-32.8-15.2-16-47.2-19.2-43.2-22.4" fill="#68a519"/><g fill="#80bc2b"><path d="M298.8 391.2c6.4 7.2 10.4 13.6 11.2 18.4-2.4-4-5.6-8-10.4-13.6-13.6-14.4-36-21.6-42.4-24.8 6.4 2.4 28.8 6.4 41.6 20zm-41.6-20c3.2 7.2 8 30.4 21.6 44.8 4.8 4.8 8.8 8.8 12.8 11.2-4.8-1.6-10.4-5.6-17.6-12.8-12-13.6-15.2-36.8-16.8-43.2zm-1.6-.8c-.8-.8-1.6-.8-.8-1.6 0 .8 0 .8.8 1.6z"/><path d="M254.8 368.8c.8-.8.8 0 1.6.8-.8-.8-.8-.8-1.6-.8z"/></g><path d="M314.8 159.2c-32.8 8-60.8 41.6-62.4 36-1.6-5.6 39.2 12 72 4s40.8-19.2 38.4-30.4c-3.2-10.4-15.2-17.6-48-9.6z" fill="#528c00"/><path d="M362.8 169.6c-2.4-11.2-15.2-17.6-48-10.4-32.8 8-60.8 41.6-62.4 36" fill="#68a519"/><path d="M314.8 159.2c14.4-3.2 24.8-4 32-2.4-7.2.8-15.2 1.6-25.6 4-28.8 6.4-55.2 28-64.8 33.6 8.8-6.4 32.8-28.8 58.4-35.2zm-58.4 35.2c11.2.8 44.8 8 72.8.8 10.4-2.4 18.4-4.8 24.8-8-6.4 4.8-16 8.8-29.6 12-25.6 6.4-56.8-3.2-68-4.8zm-.8.8c-1.6.8-2.4.8-2.4 0 0 .8.8.8 2.4 0zm-3.2 0c0-.8.8-.8 2.4-.8-1.6 0-2.4 0-2.4.8z" fill="#80bc2b"/><path d="M322.8 272.8c-32-8-73.6 8-72 3.2 1.6-5.6 28.8 28.8 61.6 37.6 32 8 44.8 2.4 48-8.8 3.2-12-4.8-24-37.6-32z" fill="#528c00"/><path d="M360.4 304c3.2-11.2-4.8-22.4-37.6-31.2-32-8-73.6 8-72 3.2" fill="#68a519"/><g fill="#80bc2b"><path d="M322.8 272.8c14.4 4 24 8 29.6 12.8-6.4-3.2-14.4-5.6-24-8-28-7.2-61.6-.8-72.8-.8 10.4-1.6 41.6-11.2 67.2-4z"/><path d="M255.6 276.8c9.6 5.6 36 28 64 35.2 10.4 2.4 18.4 4 25.6 4.8-7.2.8-17.6 0-32-3.2-26.4-7.2-48.8-30.4-57.6-36.8zm-1.6 0c-1.6 0-2.4 0-2.4-.8-.8 0 .8.8 2.4.8zm-2.4-1.6c0-.8.8-.8 2.4 0h-2.4z"/></g><path d="M330.8 213.6c-37.6 0-78.4 28-78.4 21.6 0-5.6 40 21.6 78.4 21.6 37.6 0 49.6-9.6 49.6-21.6 0-12-12-21.6-49.6-21.6z" fill="#528c00"/><path d="M380.4 235.2c0-12-12-21.6-49.6-21.6s-78.4 28-78.4 21.6" fill="#68a519"/><path d="M330.8 213.6c16.8 0 28.8 1.6 36 4.8-8-1.6-16.8-1.6-28.8-1.6-33.6 0-68 15.2-80 18.4 10.4-4 42.4-21.6 72.8-21.6zm-73.6 21.6c12 3.2 47.2 18.4 80 18.4 12 0 21.6-.8 28.8-1.6-8 3.2-19.2 4.8-36 4.8-29.6 0-61.6-17.6-72.8-21.6zm-1.6 0c-1.6.8-3.2.8-3.2 0 0 .8 1.6.8 3.2 0zm-3.2 0c0-.8.8-.8 3.2 0-1.6-.8-3.2-.8-3.2 0zm0-122.4" fill="#80bc2b"/><path d="M252.4 504.8c-2.4 0-4-1.6-4-4V108c0-2.4 1.6-4 4-4s4 1.6 4 4v392.8c0 2.4-1.6 4-4 4z" fill="#02243e"/></svg>