<svg xmlns="http://www.w3.org/2000/svg" viewBox="0 0 512 512"><path fill="#ffd500" d="M382.395 228.568h-91.18l39.547-218.369L129.603 283.43h91.182l-39.547 218.369z"/><g fill="#3d3d3d"><path d="M181.234 512a10.2 10.2 0 01-10.032-12.017l37.371-206.353h-78.969a10.202 10.202 0 01-9.103-5.597 10.201 10.201 0 01.889-10.648L322.548 4.153a10.2 10.2 0 0118.249 7.864l-37.37 206.353h78.969c3.846 0 7.367 2.164 9.103 5.597a10.201 10.201 0 01-.889 10.648L189.451 507.846a10.198 10.198 0 01-8.217 4.154zm-31.457-238.769h71.007a10.197 10.197 0 0110.036 12.017l-31.704 175.065 163.105-221.545h-71.007a10.2 10.2 0 01-10.036-12.016l31.704-175.065-163.105 221.544z"/><path d="M267.666 171.348c-.604 0-1.215-.054-1.829-.165-5.543-1.004-9.223-6.31-8.22-11.853l.923-5.1c1.003-5.543 6.323-9.225 11.852-8.219 5.543 1.004 9.223 6.31 8.22 11.853l-.923 5.1c-.892 4.928-5.186 8.384-10.023 8.384zm-12.211 67.422c-.604 0-1.215-.054-1.83-.165-5.543-1.004-9.222-6.31-8.218-11.853l7.037-38.864c1.004-5.543 6.317-9.225 11.854-8.219 5.543 1.004 9.222 6.31 8.219 11.853l-7.037 38.864c-.893 4.928-5.187 8.384-10.025 8.384z"/></g></svg>