<svg xmlns="http://www.w3.org/2000/svg" viewBox="0 0 464 464"><path d="M22.974 178.223c10.145-6.616 20.536-8.634 23.902-9.075-3.366.442-13.757 2.459-23.902 9.075zm-2.248 1.547zm26.15-10.622zm104.293 5.02zM10.23 190.035zm-4.314 6.909zm-3.321 8.247zm5.808-12.545zm149.603-21.045zm62.078 13.004c-7.959-10.711-20.255-18.147-37.921-17.715 17.666-.433 29.962 7.004 37.921 17.715zM20.726 179.77zm211.071 38.553zm-2.125-13.002zm-10.512-11.486a9.12 9.12 0 00-2.519.076c-11.836 2.191-23.715 26.479-36.293 52.192-7.426 15.184-15.247 31.109-24.04 44.909-3.777.934-7.74 1.77-11.876 2.523 10.748-14.796 20.127-33.875 28.928-51.867 11.851-24.229 22.345-45.678 34.657-53.693-6.352-1.602-14.102-1.122-23.411 2.575-13.071 9.479-26.318 25.649-40.105 42.487-19.213 23.461-40.271 49.093-64.908 61.208-5.152-.986-10.23-2.309-15.235-3.801 28.037-7.21 51.479-35.775 74.295-63.633 3.876-4.735 7.712-9.418 11.526-13.933C97.899 249.812 13.14 277.988 0 223.775c0 51.682 68.613 76.846 120 72.962 90.5-6.84 112-54.152 112-72.962 0-9.171-3.866-22.134-12.84-29.94zm-52.098-24.866zm53.022 15.636c2.653 3.571 4.825 7.506 6.552 11.635-1.727-4.129-3.899-8.064-6.552-11.635zM172.248 167.9zm55.761 31.922z" fill="#6e4141"/><path d="M231.797 218.323a75.128 75.128 0 00-1.273-9.286 73.287 73.287 0 00-1.354-5.562 67.629 67.629 0 00-1.824-5.465c-.051-.132-.106-.263-.158-.395-.18-.461-.361-.921-.552-1.377-1.727-4.129-3.898-8.064-6.552-11.635-7.959-10.711-20.255-18.147-37.921-17.715a63.03 63.03 0 00-2.987.152 71.538 71.538 0 00-6.928.857 86.405 86.405 0 00-5.186 1.069c-.999.238-2.011.497-3.036.778a104.162 104.162 0 00-6.019 1.854c-1.112.379-2.238.782-3.379 1.21-1.138.427-2.291.879-3.458 1.356-7.123 2.913-14.785 6.758-23.034 11.698a228.78 228.78 0 00-3.905 2.393 256.974 256.974 0 00-8.067 5.271 297.91 297.91 0 00-4.163 2.884c-52.5 37.051-106.5 13.11-64-27.361.017-.016-.156-.013-.494.021-.169.017-.38.041-.63.073-3.366.442-13.757 2.459-23.902 9.075a53.69 53.69 0 00-2.248 1.547 49.96 49.96 0 00-8.555 7.85 47.505 47.505 0 00-3.768 5.025 47.561 47.561 0 00-2.487 4.299 49.48 49.48 0 00-2.13 4.78 52.576 52.576 0 00-1.192 3.467C.955 210.564 0 216.721 0 223.775c13.14 54.213 97.899 26.037 150.178-10.896-3.814 4.514-7.649 9.198-11.526 13.933-22.815 27.857-46.258 56.423-74.295 63.633 5.005 1.492 10.083 2.814 15.235 3.801 24.637-12.115 45.694-37.747 64.908-61.208 13.787-16.838 27.034-33.009 40.105-42.487 9.309-3.698 17.059-4.177 23.411-2.575-12.312 8.015-22.805 29.463-34.657 53.693-8.8 17.992-18.18 37.071-28.928 51.867 4.137-.753 8.1-1.589 11.876-2.523 8.793-13.8 16.614-29.726 24.04-44.909 12.578-25.713 24.457-50.001 36.293-52.192a9.121 9.121 0 012.519-.076c8.974 7.806 12.84 20.768 12.84 29.94a73.12 73.12 0 00-.202-5.453z" fill="#8c5046"/><path d="M284.824 167.043zm-49.993 36.433zm181.663-34.402zm24.532 9.149zm-23.902-9.075c3.366.442 13.757 2.459 23.902 9.075-10.145-6.616-20.536-8.633-23.902-9.075zm34.705 18.472zm-142.456-14.808zm-15.689-4.553zm-56.32 27.981c1.727-4.129 3.898-8.064 6.552-11.635-2.653 3.571-4.825 7.506-6.552 11.635zm62.61-26.493zm153.796 20.288zm1.827 2.611zm-3.768-5.026a49.882 49.882 0 00-8.555-7.85 49.96 49.96 0 018.555 7.85zm-219.807 34.355zm81.8-9.096c3.814 4.514 7.649 9.198 11.526 13.933 22.815 27.857 46.258 56.423 74.295 63.633-5.005 1.492-10.083 2.814-15.235 3.801-24.637-12.115-45.694-37.747-64.908-61.208-13.787-16.838-27.034-33.009-40.105-42.487-9.309-3.698-17.059-4.177-23.411-2.575 12.312 8.015 22.805 29.463 34.657 53.693 8.8 17.992 18.18 37.071 28.928 51.867-4.137-.753-8.1-1.589-11.876-2.523-8.793-13.8-16.614-29.726-24.04-44.909-12.578-25.713-24.457-50.001-36.293-52.192a9.121 9.121 0 00-2.519-.076c-8.974 7.806-12.84 20.768-12.84 29.94 0 18.811 21.5 66.122 112 72.962 51.387 3.884 120-21.281 120-72.962-13.141 54.212-97.9 26.036-150.179-10.897zm-31.985-45.989c-17.665-.433-29.962 7.003-37.921 17.715 7.959-10.711 20.255-18.148 37.921-17.715zm-48.361 42.147zm226.738-7.312z" fill="#6e4141"/><path d="M244.84 193.835a9.12 9.12 0 012.519.076c11.836 2.191 23.715 26.479 36.293 52.192 7.426 15.184 15.247 31.109 24.04 44.909 3.777.934 7.74 1.77 11.876 2.523-10.748-14.796-20.127-33.875-28.928-51.867-11.851-24.229-22.345-45.678-34.657-53.693 6.352-1.602 14.102-1.122 23.411 2.575 13.071 9.479 26.318 25.649 40.105 42.487 19.213 23.461 40.271 49.093 64.908 61.208 5.152-.986 10.23-2.309 15.235-3.801-28.037-7.21-51.479-35.775-74.295-63.633-3.876-4.735-7.712-9.418-11.526-13.933 52.28 36.934 137.039 65.11 150.179 10.897 0-7.054-.955-13.211-2.595-18.584a52 52 0 00-1.192-3.467 49.262 49.262 0 00-2.13-4.78 47.7 47.7 0 00-4.314-6.909 47.505 47.505 0 00-1.941-2.415 49.96 49.96 0 00-8.555-7.85 53.69 53.69 0 00-2.248-1.547c-10.145-6.616-20.536-8.634-23.902-9.075-.249-.033-.46-.057-.63-.073-.339-.033-.511-.037-.494-.021 42.5 40.471-11.5 64.412-64 27.361-1.402-.99-2.79-1.951-4.163-2.884a255.812 255.812 0 00-8.067-5.271 232.76 232.76 0 00-3.905-2.393c-8.249-4.94-15.911-8.785-23.034-11.698-1.167-.477-2.32-.929-3.458-1.356a116.177 116.177 0 00-3.379-1.21c-2.056-.7-4.062-1.318-6.019-1.854a91.151 91.151 0 00-6.29-1.488 82.051 82.051 0 00-1.932-.359 70.919 70.919 0 00-6.928-.857 63.165 63.165 0 00-2.987-.152c-17.665-.433-29.962 7.003-37.921 17.715-2.653 3.571-4.825 7.506-6.552 11.635-.191.456-.372.917-.552 1.377-.052.132-.107.262-.158.395a68.241 68.241 0 00-2.326 7.311 71.19 71.19 0 00-.852 3.716 74.749 74.749 0 00-1.475 14.737c-.001-9.175 3.865-22.138 12.839-29.944z" fill="#8c5046"/></svg>