<svg xmlns="http://www.w3.org/2000/svg" viewBox="0 0 512 512"><path d="M131.459 210.335h16.605v49.816h-16.605zm-101.846 0h16.605v49.816H29.613zm436.169 0h16.605v49.816h-16.605zm-101.847 0h16.605v49.816h-16.605z" fill="#875b51"/><path d="M256.554 0v132.843c36.684 0 66.422-29.738 66.422-66.422S293.237 0 256.554 0z" fill="#ffa850"/><path d="M289.764 66.422C289.764 29.738 274.896 0 256.554 0c-36.684 0-66.422 29.738-66.422 66.422s29.738 66.422 66.422 66.422c18.342-.001 33.21-29.739 33.21-66.422z" fill="#fcda49"/><path fill="#a3dc93" d="M475.191 251.849l-22.14 125.924 22.14 125.924h33.211V251.849z"/><path fill="#caed73" d="M311.905 251.849l-55.351 65.591-55.352-65.591H4.705v251.848H123.71l132.844-65.591 132.843 65.591h85.794V251.849z"/><path fill="#aac36d" d="M139.762 135.611l34.318 83.027h-34.318l-7.542-28.305z"/><path fill="#caed73" d="M139.762 135.611v83.027h-34.318z"/><path fill="#aac36d" d="M37.916 135.611l34.318 83.027H37.916l-7.542-28.305z"/><path fill="#caed73" d="M37.916 135.611v83.027H3.598z"/><path fill="#aac36d" d="M474.084 135.611l34.318 83.027h-34.318l-7.542-28.305z"/><path fill="#caed73" d="M474.084 135.611v83.027h-34.317z"/><path fill="#aac36d" d="M372.238 135.611l34.318 83.027h-34.318l-7.542-28.305z"/><path fill="#caed73" d="M372.238 135.611v83.027H337.92z"/><path fill="#59473c" d="M311.905 251.849H201.202L123.71 503.697h265.687z"/><path d="M441.981 381.924a8.303 8.303 0 01-8.303-8.303v-11.07a8.303 8.303 0 018.303-8.303 8.303 8.303 0 018.303 8.303v11.07a8.303 8.303 0 01-8.303 8.303zm-337.644 22.141a8.303 8.303 0 01-8.303-8.303v-11.07c0-4.586 3.717-8.303 8.303-8.303s8.303 3.716 8.303 8.303v11.07a8.302 8.302 0 01-8.303 8.303zm-33.211-33.211a8.303 8.303 0 01-8.303-8.303v-11.07c0-4.586 3.717-8.303 8.303-8.303s8.303 3.716 8.303 8.303v11.07a8.302 8.302 0 01-8.303 8.303z" fill="#aac36d"/><path d="M408.77 337.643a8.303 8.303 0 01-8.303-8.303v-11.07c0-4.586 3.717-8.303 8.303-8.303s8.303 3.716 8.303 8.303v11.07a8.303 8.303 0 01-8.303 8.303zM37.916 478.789a8.303 8.303 0 01-8.303-8.303v-11.07c0-4.586 3.717-8.303 8.303-8.303s8.303 3.716 8.303 8.303v11.07a8.303 8.303 0 01-8.303 8.303z" fill="#a3dc93"/><path d="M256.554 512a8.303 8.303 0 01-8.303-8.303v-45.204a8.303 8.303 0 018.303-8.303 8.303 8.303 0 018.303 8.303v45.204a8.303 8.303 0 01-8.303 8.303zm0-89.484a8.303 8.303 0 01-8.303-8.303v-39.669a8.303 8.303 0 018.303-8.303 8.303 8.303 0 018.303 8.303v39.669a8.304 8.304 0 01-8.303 8.303zm0-83.951a8.303 8.303 0 01-8.303-8.303v-45.203a8.303 8.303 0 018.303-8.303 8.303 8.303 0 018.303 8.303v45.203a8.303 8.303 0 01-8.303 8.303z" fill="#fff"/></svg>