<svg xmlns="http://www.w3.org/2000/svg" viewBox="0 0 295.996 295.996"><path d="M270.996 123.998a140.21 140.21 0 00-3.907-32.9c-7.269-15.152-17.35-28.708-29.558-39.996-22.391-13.376-48.766-20.666-76.771-19.645C83.492 34.273 23.139 99.196 25.955 176.463a140.168 140.168 0 005.087 32.673 132.688 132.688 0 0023.934 32.42c21.892 14.189 47.99 22.44 76.022 22.44 77.318 0 139.998-62.68 139.998-139.998zm-73.499-24c8.836 0 16 7.164 16 16s-7.164 16-16 16-16-7.164-16-16 7.164-16 16-16zm-99 0c8.836 0 16 7.164 16 16s-7.164 16-16 16-16-7.164-16-16 7.164-16 16-16zm-46.833 95.596v-16c9 0 15.598-6.997 15.598-15.598 0-8.6-6.598-15.596-15.598-15.596v-16c16 0 30.2 12.712 31.634 28.854 17.379 16.889 40.228 26.148 64.615 26.148 24.146 0 47.172-9.458 64.407-26.152 1.438-16.14 15.343-28.85 31.343-28.85v16c-8 0-15.598 6.996-15.598 15.596 0 8.601 7.598 15.598 15.598 15.598v16c-11 0-21.969-6.638-27.445-16.409-19.222 15.544-43.265 24.218-68.305 24.218-25.312 0-49.26-8.503-68.53-24.189-5.481 9.756-15.719 16.38-27.719 16.38z" fill="#ffce00"/><path d="M267.089 91.098a140.216 140.216 0 013.907 32.9c0 77.318-62.68 139.998-139.998 139.998-28.032 0-54.131-8.251-76.022-22.44 23.88 23.744 56.767 38.44 93.022 38.44 72.784 0 131.998-59.214 131.998-131.998 0-20.362-4.638-39.661-12.907-56.9z" fill="#ffb100"/><path d="M160.76 31.457c28.006-1.021 54.381 6.269 76.771 19.645C213.985 29.328 182.521 16 147.998 16 75.214 16 16 75.214 16 147.998c0 22.049 5.442 42.849 15.042 61.138a140.168 140.168 0 01-5.087-32.673C23.139 99.196 83.492 34.273 160.76 31.457z" fill="#ffe454"/><path d="M147.998 0C66.392 0 0 66.392 0 147.998s66.392 147.998 147.998 147.998 147.998-66.392 147.998-147.998S229.605 0 147.998 0zm0 279.996c-36.256 0-69.143-14.696-93.022-38.44a132.713 132.713 0 01-23.934-32.42C21.442 190.847 16 170.047 16 147.998 16 75.214 75.214 16 147.998 16c34.523 0 65.987 13.328 89.533 35.102 12.208 11.288 22.289 24.844 29.558 39.996 8.27 17.239 12.907 36.538 12.907 56.9 0 72.784-59.214 131.998-131.998 131.998zm108.69-220.222c.101.123.203.244.303.368l-.303-.368z"/><circle cx="98.497" cy="115.998" r="16"/><circle cx="197.497" cy="115.998" r="16"/><path d="M147.997 203.402c25.04 0 49.001-8.674 68.222-24.218 5.476 9.771 16.445 16.409 27.445 16.409v-16c-8 0-15.598-6.997-15.598-15.598 0-8.6 7.598-15.596 15.598-15.596v-16c-16 0-29.864 12.71-31.301 28.85-17.235 16.694-40.302 26.152-64.449 26.152-24.388 0-47.278-9.26-64.657-26.148-1.435-16.141-15.593-28.853-31.593-28.853v16c9 0 15.598 6.996 15.598 15.596 0 8.601-6.598 15.598-15.598 15.598v16c12 0 22.28-6.624 27.761-16.38 19.271 15.685 43.261 24.188 68.572 24.188z"/></svg>