<svg xmlns="http://www.w3.org/2000/svg" viewBox="0 0 507.586 507.586"><path d="M506.659 202.512c-2.4-8-9.6-14.4-18.4-15.2l-148-21.6-66.4-134.4c-4-8-12-12.8-20-12.8-8.8 0-16 4.8-20 12.8l-66.4 134.4-148 20.8c-8.8 1.6-15.2 7.2-18.4 15.2-2.4 8-.8 16.8 5.6 23.2l107.2 104.8-25.6 147.2c-1.6 8.8 2.4 16.8 8.8 22.4 7.2 4.8 16 5.6 24 1.6l132.8-69.6 132.8 69.6c3.2 1.6 7.2 2.4 10.4 2.4 4.8 0 9.6-1.6 13.6-4 7.2-4.8 10.4-13.6 8.8-22.4l-25.6-147.2 107.2-104.8c5.6-5.6 8-14.4 5.6-22.4z" fill="#ea7103"/><path d="M506.659 187.312c-2.4-8-9.6-14.4-18.4-15.2l-148-21.6-66.4-133.6c-4-8-12-12.8-20-12.8-8.8 0-16 4.8-20 12.8l-66.4 134.4-148 20.8c-8.8 1.6-15.2 7.2-18.4 15.2-2.4 8-.8 16.8 5.6 23.2l107.2 104.8-25.6 147.2c-1.6 8.8 2.4 16.8 8.8 22.4 7.2 4.8 16 5.6 24 1.6l132.8-69.6 132.8 69.6c3.2 1.6 7.2 2.4 10.4 2.4 4.8 0 9.6-1.6 13.6-4 7.2-4.8 10.4-13.6 8.8-22.4l-25.6-147.2 107.2-104.8c5.6-5.6 8-15.2 5.6-23.2z" fill="#f9a908"/><path d="M506.659 187.312c-2.4-8-9.6-14.4-18.4-15.2l-148-21.6-66.4-133.6c-4-8-11.2-12.8-20-12.8h-.8v412.8l.8-.8 132 69.6c3.2 1.6 6.4 2.4 10.4 2.4 4.8 0 9.6-1.6 12.8-4 7.2-4.8 10.4-13.6 8.8-22.4l-25.6-147.2 107.2-104.8c7.2-4.8 9.6-14.4 7.2-22.4z" fill="#f7910b"/><path d="M205.059 262.512c-2.4-.8-4.8-1.6-6.4-4-6.4-9.6-20-12-29.6-5.6-4.8 3.2-10.4 1.6-13.6-2.4-3.2-4.8-1.6-10.4 2.4-13.6 18.4-12.8 44-8 56.8 10.4 3.2 4.8 1.6 10.4-2.4 13.6-1.6 1.6-4.8 2.4-7.2 1.6z" fill="#1e4784"/><path d="M215.459 247.312c3.2 4.8 1.6 10.4-2.4 13.6-2.4 1.6-4.8 2.4-7.2 1.6s-4.8-1.6-6.4-4c-6.4-9.6-20-12-29.6-5.6-4.8 3.2-10.4 1.6-13.6-2.4-3.2-4.8-1.6-10.4 2.4-13.6" fill="#02243e"/><path d="M302.659 262.512c2.4-.8 4.8-1.6 6.4-4 6.4-9.6 20-12 29.6-5.6 4.8 3.2 10.4 1.6 13.6-2.4 3.2-4.8 1.6-10.4-2.4-13.6-18.4-12.8-44-8-56.8 10.4-3.2 4.8-1.6 10.4 2.4 13.6 1.6 1.6 4.8 2.4 7.2 1.6z" fill="#1e4784"/><path d="M292.259 247.312c-3.2 4.8-1.6 10.4 2.4 13.6 2.4 1.6 4.8 2.4 7.2 1.6s4.8-1.6 6.4-4c6.4-9.6 20-12 29.6-5.6 4.8 3.2 10.4 1.6 13.6-2.4 3.2-4.8 1.6-10.4-2.4-13.6" fill="#02243e"/><path d="M319.459 291.312c0 40.8-29.6 73.6-65.6 73.6s-65.6-32.8-65.6-73.6" fill="#c42260"/><path d="M319.459 291.312c0 13.6-29.6 24.8-65.6 24.8s-65.6-11.2-65.6-24.8" fill="#99144a"/><path d="M253.859 364.912c20 0 38.4-10.4 50.4-26.4-7.2-9.6-18.4-15.2-30.4-15.2-7.2 0-14.4 2.4-20 5.6-5.6-4-12.8-5.6-20-5.6-12 0-23.2 5.6-30.4 15.2 12 16 30.4 26.4 50.4 26.4z" fill="#e2446e"/><g fill="#f7910b"><circle cx="75.459" cy="196.912" r="13.6"/><circle cx="125.059" cy="184.912" r="2.4"/><circle cx="197.059" cy="166.512" r="2.4"/><circle cx="234.659" cy="75.312" r="12.8"/><circle cx="126.659" cy="251.312" r="4.8"/><circle cx="224.259" cy="200.112" r="11.2"/><circle cx="147.459" cy="352.912" r="5.6"/><circle cx="161.859" cy="420.112" r="9.6"/><circle cx="183.459" cy="388.112" r="5.6"/><circle cx="226.659" cy="394.512" r="2.4"/><circle cx="114.659" cy="456.112" r="3.2"/></g><g fill="#f9a908"><circle cx="290.659" cy="172.112" r="13.6"/><circle cx="353.059" cy="198.512" r="4"/><circle cx="422.659" cy="204.112" r="6.4"/><circle cx="404.259" cy="240.112" r="8.8"/><circle cx="365.059" cy="295.312" r="5.6"/><circle cx="326.659" cy="397.712" r="16.8"/><circle cx="354.659" cy="344.112" r="4.8"/><circle cx="281.059" cy="100.912" r="6.4"/><circle cx="301.859" cy="123.312" r="1.6"/></g></svg>