<svg xmlns="http://www.w3.org/2000/svg" viewBox="0 0 512 512"><path d="M256.073 263.481l-39.728 14.417 1.481-42.094-25.987-33.333 40.492-11.602 23.67-35.015 23.545 34.929 40.617 11.689-25.942 33.187 1.435 42.24-39.583-14.418zM159.377 53.335h-29.062c-28.747 0-32.867 7.147-50.799 30.209l-60.353 77.617c-10.503 13.509-12.045 17.344-.215 29.783l42.717 44.935c15.049 15.833 16.497 18.511 30.508 4.347l21.558-21.798-1.992 213.408c-.24 25.675-.042 26.831 25.785 26.831h236.95c25.827 0 26.025-1.156 25.786-26.831l-1.993-213.408 21.559 21.798c14.01 14.164 15.458 11.487 30.508-4.347l42.719-44.935c11.827-12.439 10.288-16.274-.218-29.783l-60.353-77.617c-17.932-23.063-22.05-30.209-50.797-30.209h-29.064c-22.993 27.305-57.739 44.703-96.62 44.703-38.886-.001-73.632-17.399-96.624-44.703z" fill="#9fdee2"/><path fill="#ffa233" d="M216.345 277.898l39.728-14.417 39.583 14.417-1.435-42.24 25.942-33.187-40.617-11.688-23.545-34.929-23.671 35.015-40.492 11.602 25.988 33.333z"/><g fill="#000003"><path d="M357.446 365.671c-5.892 0-10.667 4.776-10.667 10.667v39.663c0 5.892 4.776 10.667 10.667 10.667s10.667-4.776 10.667-10.667v-39.663c0-5.891-4.776-10.667-10.667-10.667zm-.006-9.311c5.891 0 10.667-4.776 10.667-10.667v-.254c0-5.892-4.777-10.667-10.667-10.667s-10.667 4.776-10.667 10.667v.254c0 5.892 4.777 10.667 10.667 10.667z"/><path d="M511.972 175.897c-.392-7.467-4.688-13.533-10.715-21.284l-42.952-55.237-19.829-25.51c-16.592-21.421-24.164-31.199-56.791-31.199h-29.064a10.663 10.663 0 00-8.158 3.796C322.571 72.46 290.328 87.37 256.001 87.37c-34.329 0-66.572-14.91-88.464-40.907a10.669 10.669 0 00-8.16-3.796h-29.062c-32.629 0-40.202 9.778-56.793 31.201l-62.781 80.745C4.714 162.365.417 168.429.028 175.897c-.485 9.299 5.521 16.437 11.188 22.397l44.374 46.68c8.646 9.122 14.357 15.148 23.112 15.148 8.134 0 14.348-5.613 21.055-12.395l3.063-3.096-1.748 187.105c-.14 15.069-.225 24.165 6.376 30.825 6.709 6.773 17.022 6.773 30.076 6.773h236.951c13.056 0 23.368 0 30.076-6.773 6.601-6.661 6.516-15.757 6.376-30.825l-1.746-187.104 3.061 3.096c6.708 6.781 12.922 12.395 21.054 12.395 8.755 0 14.466-6.025 23.11-15.144l44.378-46.683c5.667-5.963 11.674-13.102 11.188-22.399zm-26.65 7.696l-44.4 46.707c-2.771 2.924-5.83 6.151-7.747 7.788-1.087-.851-2.867-2.433-5.765-5.365l-21.558-21.796a10.667 10.667 0 00-18.252 7.599l1.993 213.407c.052 5.671.116 12.569-.445 15.401-2.999.664-10.458.664-14.675.664h-236.95c-4.217 0-11.675 0-14.674-.664-.56-2.832-.497-9.731-.444-15.401l1.992-213.408a10.664 10.664 0 00-6.567-9.947 10.666 10.666 0 00-11.686 2.348l-21.556 21.795c-2.899 2.93-4.679 4.513-5.766 5.365-1.916-1.638-4.975-4.866-7.749-7.791L26.677 183.59c-4.08-4.291-5.067-6.113-5.304-6.701.574-1.934 4.642-7.168 6.209-9.183l60.353-77.617 2.451-3.16C105.78 67.055 108.145 64 130.313 64h24.221c25.834 28.472 62.527 44.703 101.465 44.703 38.936 0 75.629-16.23 101.462-44.703h24.222c22.166 0 24.53 3.054 39.924 22.928l62.805 80.779c1.568 2.016 5.638 7.249 6.211 9.183-.234.59-1.22 2.412-5.301 6.703z"/><path d="M140.673 85.436h-.057c-21.061.11-26.495 5.863-42.09 25.801-3.629 4.641-2.811 11.345 1.829 14.975a10.631 10.631 0 006.565 2.266c3.169 0 6.307-1.406 8.411-4.095 13.726-17.551 13.944-17.552 25.397-17.611 5.89-.031 10.643-4.831 10.612-10.723-.031-5.874-4.8-10.613-10.667-10.613zm-45.916 48.201c-4.611-3.667-11.322-2.9-14.989 1.711l-.311.4c-3.622 4.647-2.791 11.35 1.856 14.972a10.614 10.614 0 006.551 2.254 10.654 10.654 0 008.421-4.11l.191-.245c3.659-4.612 2.891-11.318-1.719-14.982zm228.356 58.583l-36.89-10.616-21.378-31.713a10.665 10.665 0 00-8.838-4.704h-.006a10.665 10.665 0 00-8.838 4.694l-21.498 31.802-36.765 10.532a10.671 10.671 0 00-7.206 6.952 10.671 10.671 0 001.731 9.862l23.602 30.273-1.343 38.221a10.668 10.668 0 0014.299 10.403l36.083-13.094 35.937 13.089a10.668 10.668 0 0014.311-10.385l-1.302-38.364 23.552-30.132a10.667 10.667 0 00-5.451-16.82zm-37.296 36.869a10.67 10.67 0 00-2.257 6.932l.898 26.446-24.733-9.009a10.648 10.648 0 00-7.289-.004l-24.874 9.027.924-26.304a10.658 10.658 0 00-2.248-6.934l-16.271-20.869 25.302-7.249a10.663 10.663 0 005.9-4.281l14.82-21.923 14.713 21.825a10.67 10.67 0 005.894 4.288l25.431 7.319-16.21 20.736z"/></g></svg>