<svg xmlns="http://www.w3.org/2000/svg" viewBox="0 0 469.996 469.996"><path d="M132.668 462.496h204.66c-29.359-22.191-65.345-34.327-102.33-34.327s-72.971 12.136-102.33 34.327z" fill="#5d734f"/><path d="M108.755 234.352c1.049.65 2.116 1.288 3.183 1.927 5.318 3.18 10.818 6.468 14.788 11.439 3.994 5.002 5.992 11.115 7.924 17.028 1.901 5.818 3.697 11.314 6.878 13.854 3.149 2.515 8.887 3.048 14.962 3.612 5.881.547 11.953 1.111 17.5 3.545 14.621-18.78 36.933-29.797 61.008-29.797 24.077 0 46.387 11.015 61.008 29.797 5.547-2.434 11.619-2.998 17.501-3.544 6.075-.565 11.813-1.099 14.961-3.613 3.181-2.54 4.977-8.035 6.878-13.854 1.932-5.912 3.93-12.025 7.923-17.027 3.969-4.971 9.467-8.258 14.784-11.437 5.274-3.153 10.256-6.132 12.044-9.838 1.727-3.58.971-9.267.171-15.287-.825-6.204-1.678-12.62-.242-18.937 1.386-6.097 4.871-11.384 8.241-16.496 3.417-5.183 6.644-10.078 6.644-14.338 0-4.259-3.227-9.154-6.644-14.338-3.37-5.112-6.855-10.399-8.241-16.496-1.436-6.315-.583-12.731.242-18.936.8-6.02 1.556-11.707-.171-15.287-1.788-3.706-6.77-6.685-12.044-9.838-5.317-3.179-10.815-6.466-14.784-11.437-3.994-5.001-5.992-11.115-7.923-17.027-1.901-5.818-3.697-11.314-6.878-13.854-3.15-2.516-8.888-3.049-14.962-3.614-6.209-.577-12.63-1.174-18.423-3.969-5.679-2.739-10.081-7.34-14.338-11.788-4.271-4.462-8.305-8.678-12.378-9.604-3.8-.863-9.131 1.125-14.776 3.229-5.914 2.205-12.029 4.485-18.593 4.485s-12.679-2.28-18.593-4.485c-5.646-2.104-10.98-4.091-14.777-3.229-4.072.926-8.106 5.141-12.376 9.604-4.257 4.448-8.659 9.048-14.338 11.788-5.794 2.795-12.216 3.393-18.426 3.97-1.205.112-2.409.225-3.602.354-3.971.436-7.556-2.333-8.199-6.233-2.92.738-5.6 1.843-7.839 3.631-2.282 1.822-3.973 4.246-5.355 6.984 3.666 1.485 5.576 5.589 4.277 9.375-.379 1.105-.745 2.225-1.111 3.343-1.935 5.917-3.936 12.036-7.932 17.042-3.969 4.97-9.467 8.257-14.784 11.436-5.275 3.154-10.257 6.133-12.045 9.838-1.728 3.581-.971 9.268-.171 15.288.825 6.204 1.677 12.62.242 18.936-1.386 6.097-4.871 11.384-8.241 16.496-3.417 5.184-6.644 10.079-6.644 14.338 0 4.26 3.227 9.155 6.644 14.339 3.37 5.112 6.854 10.399 8.24 16.495 1.436 6.316.583 12.733-.241 18.938-.151 1.135-.302 2.268-.436 3.395a7.501 7.501 0 01-7.438 6.614c-.162 0-.326-.019-.49-.029.052 3.058.521 5.957 1.779 8.564 1.257 2.605 3.206 4.78 5.527 6.719 2.267-3.235 6.687-4.179 10.086-2.071zm199.472-100.868c15.386 0 27.904 12.518 27.904 27.903 0 15.387-12.518 27.904-27.904 27.904s-27.903-12.518-27.903-27.904c0-15.385 12.518-27.903 27.903-27.903zm-73.229-66.255c15.386 0 27.904 12.518 27.904 27.903s-12.518 27.903-27.904 27.903-27.904-12.518-27.904-27.903 12.518-27.903 27.904-27.903zm-73.23 66.255c15.386 0 27.903 12.518 27.903 27.903 0 15.387-12.518 27.904-27.903 27.904-15.386 0-27.904-12.518-27.904-27.904.001-15.385 12.518-27.903 27.904-27.903z" fill="#d4ed85"/><path d="M308.227 174.292c7.115 0 12.904-5.789 12.904-12.904s-5.789-12.903-12.904-12.903-12.903 5.788-12.903 12.903 5.789 12.904 12.903 12.904z" fill="#d35b38"/><path d="M308.227 189.292c15.386 0 27.904-12.518 27.904-27.904s-12.518-27.903-27.904-27.903-27.903 12.518-27.903 27.903c0 15.386 12.518 27.904 27.903 27.904zm0-40.808c7.115 0 12.904 5.788 12.904 12.903s-5.789 12.904-12.904 12.904-12.903-5.789-12.903-12.904 5.789-12.903 12.903-12.903z" fill="#4d3d36"/><path d="M234.998 108.036c7.115 0 12.904-5.788 12.904-12.903s-5.789-12.903-12.904-12.903-12.904 5.788-12.904 12.903 5.789 12.903 12.904 12.903z" fill="#d35b38"/><path d="M234.998 123.036c15.386 0 27.904-12.518 27.904-27.903S250.384 67.23 234.998 67.23s-27.904 12.518-27.904 27.903 12.518 27.903 27.904 27.903zm0-40.807c7.115 0 12.904 5.788 12.904 12.903s-5.789 12.903-12.904 12.903-12.904-5.788-12.904-12.903 5.789-12.903 12.904-12.903z" fill="#4d3d36"/><path d="M161.768 174.292c7.115 0 12.903-5.789 12.903-12.904s-5.789-12.903-12.903-12.903c-7.115 0-12.904 5.788-12.904 12.903s5.789 12.904 12.904 12.904z" fill="#d35b38"/><path d="M161.768 189.292c15.386 0 27.903-12.518 27.903-27.904s-12.518-27.903-27.903-27.903c-15.386 0-27.904 12.518-27.904 27.903.001 15.386 12.518 27.904 27.904 27.904zm0-40.808c7.115 0 12.903 5.788 12.903 12.903s-5.789 12.904-12.903 12.904c-7.115 0-12.904-5.789-12.904-12.904s5.789-12.903 12.904-12.903z" fill="#4d3d36"/><path d="M390.792 183.981c4.274-6.485 9.12-13.835 9.12-22.594 0-8.758-4.845-16.108-9.12-22.593-2.754-4.179-5.356-8.125-6.138-11.565-.838-3.688-.196-8.519.484-13.634 1.007-7.574 2.148-16.158-1.53-23.782-3.741-7.756-11.241-12.239-17.857-16.195-4.363-2.608-8.484-5.072-10.759-7.921-2.3-2.881-3.8-7.469-5.387-12.327-2.386-7.302-5.09-15.578-11.776-20.916-6.654-5.314-15.303-6.118-22.934-6.828-5.11-.475-9.936-.923-13.293-2.543-3.236-1.562-6.531-5.004-10.019-8.649C286.229 8.84 280.161 2.5 271.692.574c-8.166-1.854-16.229 1.15-23.341 3.802-4.883 1.82-9.495 3.54-13.353 3.54s-8.47-1.72-13.353-3.54c-7.113-2.651-15.177-5.655-23.342-3.802-8.468 1.926-14.536 8.266-19.889 13.859-3.488 3.646-6.783 7.089-10.019 8.649-3.358 1.62-8.187 2.069-13.298 2.545-1.281.119-2.562.238-3.83.376a7.5 7.5 0 00-6.647 8.266c.015.14.043.276.066.413.643 3.9 4.228 6.669 8.199 6.233 1.193-.129 2.397-.241 3.602-.354 6.21-.577 12.631-1.175 18.426-3.97 5.679-2.74 10.081-7.34 14.338-11.788 4.271-4.463 8.304-8.678 12.376-9.604 3.797-.861 9.131 1.125 14.777 3.229 5.914 2.205 12.029 4.485 18.593 4.485s12.679-2.28 18.593-4.485c5.645-2.104 10.977-4.093 14.776-3.229 4.074.926 8.107 5.142 12.378 9.604 4.257 4.448 8.659 9.049 14.338 11.788 5.793 2.795 12.214 3.392 18.423 3.969 6.075.565 11.813 1.099 14.962 3.614 3.181 2.539 4.977 8.035 6.878 13.854 1.932 5.912 3.93 12.026 7.923 17.027 3.969 4.971 9.467 8.258 14.784 11.437 5.274 3.153 10.256 6.132 12.044 9.838 1.727 3.58.971 9.268.171 15.287-.825 6.204-1.678 12.62-.242 18.936 1.386 6.097 4.871 11.384 8.241 16.496 3.417 5.184 6.644 10.079 6.644 14.338 0 4.26-3.227 9.155-6.644 14.338-3.37 5.112-6.855 10.399-8.241 16.496-1.436 6.316-.583 12.732.242 18.937.8 6.021 1.556 11.707-.171 15.287-1.788 3.706-6.77 6.685-12.044 9.838-5.317 3.179-10.815 6.466-14.784 11.437-3.994 5.002-5.992 11.115-7.923 17.027-1.902 5.819-3.698 11.314-6.878 13.854-3.149 2.515-8.887 3.048-14.961 3.613-5.882.546-11.954 1.11-17.501 3.544-14.621-18.782-36.931-29.797-61.008-29.797-24.075 0-46.387 11.017-61.008 29.797-5.548-2.434-11.619-2.998-17.5-3.545-6.075-.564-11.813-1.098-14.962-3.612-3.181-2.54-4.977-8.036-6.878-13.854-1.932-5.913-3.93-12.026-7.924-17.028-3.97-4.972-9.469-8.26-14.788-11.439-1.067-.639-2.134-1.276-3.183-1.927-3.399-2.109-7.818-1.165-10.085 2.07-.081.116-.167.228-.242.35a7.499 7.499 0 002.42 10.326c1.118.693 2.256 1.374 3.393 2.055 4.365 2.609 8.488 5.074 10.764 7.925 2.3 2.881 3.8 7.47 5.387 12.328 2.386 7.302 5.09 15.577 11.776 20.917 6.654 5.313 15.303 6.117 22.934 6.826 5.11.476 9.936.924 13.291 2.542.954.461 1.958 1.108 3.068 1.979a7.5 7.5 0 0010.95-1.861 63.303 63.303 0 016.292-8.259l38.797 35.411v86.366c-40.931 1.668-80.339 16.94-111.694 43.44a7.5 7.5 0 009.682 11.457 169.775 169.775 0 017.181-5.729c29.359-22.191 65.345-34.327 102.33-34.327s72.971 12.136 102.33 34.327a168.348 168.348 0 017.181 5.729 7.469 7.469 0 004.837 1.771 7.499 7.499 0 004.845-13.228c-31.354-26.5-70.763-41.772-111.694-43.44v-86.366l38.797-35.411a63.25 63.25 0 016.291 8.259 7.499 7.499 0 0010.95 1.86c1.11-.871 2.113-1.518 3.066-1.978 3.357-1.62 8.184-2.068 13.293-2.543 7.63-.71 16.278-1.514 22.933-6.827 6.686-5.339 9.39-13.615 11.776-20.917 1.587-4.857 3.087-9.446 5.387-12.327 2.275-2.849 6.396-5.313 10.759-7.921 6.616-3.956 14.116-8.439 17.857-16.195 3.678-7.624 2.537-16.208 1.53-23.781-.68-5.115-1.322-9.947-.484-13.636.784-3.44 3.386-7.386 6.14-11.564zm-190.713 97.647a61.98 61.98 0 0127.419-10.214v35.24l-27.419-25.026zm42.419-10.215a62.004 62.004 0 0127.419 10.214l-27.419 25.026v-35.24zM99.291 214.555c.134-1.127.285-2.26.436-3.395.825-6.205 1.677-12.622.241-18.938-1.386-6.096-4.87-11.383-8.24-16.495-3.417-5.184-6.644-10.079-6.644-14.339 0-4.259 3.227-9.154 6.644-14.338 3.37-5.112 6.855-10.399 8.241-16.496 1.436-6.315.583-12.731-.242-18.936-.8-6.021-1.557-11.707.171-15.288 1.788-3.705 6.77-6.684 12.045-9.838 5.316-3.179 10.814-6.466 14.784-11.436 3.997-5.006 5.997-11.125 7.932-17.042.366-1.118.732-2.237 1.111-3.343 1.3-3.786-.611-7.89-4.277-9.375-.127-.052-.252-.108-.383-.153a7.5 7.5 0 00-9.528 4.659 250.132 250.132 0 00-1.18 3.55c-1.591 4.864-3.093 9.458-5.397 12.345-2.275 2.848-6.396 5.313-10.759 7.921-6.617 3.956-14.116 8.439-17.857 16.194-3.678 7.624-2.537 16.209-1.53 23.782.68 5.115 1.322 9.947.484 13.635-.782 3.44-3.383 7.387-6.138 11.565-4.274 6.484-9.12 13.835-9.12 22.593 0 8.759 4.845 16.109 9.12 22.595 2.754 4.178 5.355 8.124 6.137 11.564.839 3.688.196 8.521-.484 13.637-.16 1.203-.319 2.404-.461 3.598a7.5 7.5 0 006.561 8.334c.136.016.27.016.406.024.163.011.328.029.49.029a7.499 7.499 0 007.437-6.613z" fill="#4d3d36"/></svg>