<svg xmlns="http://www.w3.org/2000/svg" viewBox="0 0 512 512"><path fill="#a8f7ff" d="M197.818 356.364h116.364v116.364H197.818z"/><path d="M512 53.818c0-12.8-10.473-23.273-23.273-23.273H23.273C10.473 30.545 0 41.018 0 53.818v267.636l256 23.273 256-23.273V53.818z" fill="#074761"/><path fill="#ffd178" d="M128 90.667h256v151.121H128z"/><path fill="#fe623f" d="M308.497 162.124L256 217.509l-52.497-55.385L128 241.792v19.541h256v-19.541z"/><circle cx="256" cy="144.71" r="26.667" fill="#ff8d46"/><path d="M0 321.455v34.909c0 12.8 10.473 23.273 23.273 23.273h465.455c12.8 0 23.273-10.473 23.273-23.273v-34.909H0zm395.636 160H116.364c-4.82 0-8.727-3.906-8.727-8.727s3.907-8.727 8.727-8.727h279.273c4.821 0 8.727 3.906 8.727 8.727s-3.907 8.727-8.728 8.727z" fill="#73dce6"/></svg>