<svg xmlns="http://www.w3.org/2000/svg" viewBox="0 0 512 512"><path fill="#ffb833" d="M222.609 0h66.783v77.913h-66.783z"/><path fill="#ffd485" d="M239.304 200.348h33.391v211.478h-33.391z"/><path d="M111.304 211.478h33.391v33.391h-33.391zm256 0h33.391v33.391h-33.391z" fill="#ffb833"/><path fill="#ff1a26" d="M222.609 66.783L0 211.478h111.304l128-144.695z"/><path d="M239.304 66.783l-128 144.695H256V66.783zM512 211.478L289.391 66.783h-16.695l128 144.695z" fill="#ff4851"/><path fill="#ff1a26" d="M272.696 66.783H256v144.695h144.696z"/><path d="M0 211.478h33.391v33.391H0zm478.609 0H512v33.391h-33.391zm-256 189.218h66.783V512h-66.783z" fill="#ffb833"/></svg>