<?xml version="1.0" encoding="iso-8859-1"?>
<!-- Generator: Adobe Illustrator 19.0.0, SVG Export Plug-In . SVG Version: 6.00 Build 0)  -->
<svg version="1.1" id="Layer_1" xmlns="http://www.w3.org/2000/svg" xmlns:xlink="http://www.w3.org/1999/xlink" x="0px" y="0px"
	 viewBox="0 0 512 512" style="enable-background:new 0 0 512 512;" xml:space="preserve">
<g>
	<rect x="120.163" y="472.816" style="fill:#FFFFFF;" width="31.347" height="31.347"/>
	<rect x="360.49" y="472.816" style="fill:#FFFFFF;" width="31.347" height="31.347"/>
</g>
<path style="fill:#79CAE8;" d="M391.837,472.816H120.163V28.735c0-11.542,9.356-20.898,20.898-20.898h229.878
	c11.542,0,20.898,9.356,20.898,20.898V472.816z"/>
<rect x="120.163" y="185.553" style="fill:#4B92B9;" width="271.673" height="26.122"/>
<g>
	<path style="fill:#FFFFFF;" d="M168.783,316.167v-60.604c0-6.348,5.146-11.494,11.494-11.494l0,0
		c6.348,0,11.494,5.146,11.494,11.494v60.604c0,6.348-5.146,11.494-11.494,11.494l0,0
		C173.93,327.661,168.783,322.515,168.783,316.167z"/>
	<path style="fill:#FFFFFF;" d="M168.783,141.669V81.065c0-6.348,5.146-11.494,11.494-11.494l0,0
		c6.348,0,11.494,5.146,11.494,11.494v60.604c0,6.348-5.146,11.494-11.494,11.494l0,0
		C173.93,153.163,168.783,148.017,168.783,141.669z"/>
</g>
<path d="M370.939,0H141.061c-15.844,0-28.735,12.89-28.735,28.735v444.082v7.837V512h47.02v-31.347h193.306V512h47.02v-31.347
	v-7.837V28.735C399.673,12.89,386.783,0,370.939,0z M128,219.514h256V464.98H128V219.514z M384,203.841H128v-10.449h256V203.841z
	 M141.061,15.673h229.878c7.201,0,13.061,5.859,13.061,13.061v148.984H128V28.735C128,21.532,133.859,15.673,141.061,15.673z
	 M143.673,496.327H128v-15.673h15.673V496.327z M384,496.327h-15.673v-15.673H384V496.327z"/>
<path d="M180.277,161c10.659,0,19.331-8.672,19.331-19.331V81.065c0-10.659-8.672-19.331-19.331-19.331
	c-10.659,0-19.331,8.672-19.331,19.331v60.604C160.947,152.328,169.618,161,180.277,161z M176.62,81.065
	c0-2.017,1.64-3.657,3.657-3.657s3.657,1.64,3.657,3.657v60.604c0,2.017-1.641,3.657-3.657,3.657s-3.657-1.641-3.657-3.657V81.065z"
	/>
<path d="M180.277,236.233c-10.659,0-19.331,8.672-19.331,19.331v60.604c0,10.659,8.672,19.331,19.331,19.331
	c10.659,0,19.331-8.672,19.331-19.331v-60.604C199.608,244.904,190.936,236.233,180.277,236.233z M183.934,316.167
	c0,2.017-1.641,3.657-3.657,3.657s-3.657-1.64-3.657-3.657v-60.604c0-2.017,1.64-3.657,3.657-3.657s3.657,1.64,3.657,3.657V316.167z
	"/>
<g>
</g>
<g>
</g>
<g>
</g>
<g>
</g>
<g>
</g>
<g>
</g>
<g>
</g>
<g>
</g>
<g>
</g>
<g>
</g>
<g>
</g>
<g>
</g>
<g>
</g>
<g>
</g>
<g>
</g>
</svg>
